<svg width="49" height="102" viewBox="0 0 49 102" fill="none" xmlns="http://www.w3.org/2000/svg">
<path d="M29.1861 84.8274C29.1573 84.8658 24.7092 81.5625 19.273 77.4534C13.8367 73.3442 9.43341 69.9834 9.46538 69.9642C9.49736 69.945 13.9423 73.2259 19.3785 77.3382C24.8147 81.4506 29.2117 84.7923 29.1861 84.8274Z" fill="#263238"/>
<path d="M7.44118 85.2112C7.4124 85.176 11.8477 81.7288 17.3543 77.5141C22.8609 73.2994 27.3282 69.9098 27.3569 69.9482C27.3857 69.9866 22.9408 73.4306 17.4598 77.6388C11.9788 81.8471 7.46996 85.2463 7.44118 85.2112Z" fill="#263238"/>
<path d="M10.7126 66.1652L9.9259 70.4151H11.0931L12.2955 66.1652H10.7126Z" fill="#263238"/>
<path d="M8.68829 69.1711C7.65861 74.3483 3.65819 93.6757 2.65089 98.5555C2.62101 98.6886 2.62109 98.8267 2.65112 98.9598C2.68116 99.093 2.74039 99.2177 2.82454 99.3251C2.9087 99.4325 3.01567 99.5199 3.13772 99.5809C3.25977 99.6419 3.39386 99.6751 3.53028 99.6779C3.72986 99.6767 3.92336 99.6092 4.08028 99.4858C4.23719 99.3625 4.34858 99.1904 4.39687 98.9968L12.1963 69.9258C12.262 69.6919 12.2735 69.446 12.2299 69.207C12.1864 68.9679 12.089 68.7419 11.945 68.5461C11.801 68.3504 11.6143 68.19 11.3991 68.0772C11.1839 67.9644 10.9458 67.9022 10.7029 67.8952H10.2104C9.8482 67.8986 9.49839 68.0278 9.22077 68.2605C8.94316 68.4932 8.75495 68.815 8.68829 69.1711Z" fill="#455A64"/>
<path d="M26.177 66.1652L26.9637 70.4151H25.7965L24.5941 66.1652H26.177Z" fill="#263238"/>
<path d="M34.4081 60.6906C32.1408 56.4791 29.4387 43.6209 28.2491 39.5181C28.2172 39.403 28.182 39.2911 28.1468 39.1824C27.6967 37.868 26.8447 36.7285 25.7113 35.925C24.5778 35.1216 23.2205 34.695 21.8312 34.7055H14.9784C13.5888 34.6952 12.2311 35.122 11.0973 35.9253C9.96339 36.7287 9.11065 37.868 8.65955 39.1824C8.62437 39.2911 8.5892 39.403 8.55722 39.5181C7.36765 43.6209 4.66872 56.4664 2.3983 60.6906C2.3983 60.6906 -0.626796 62.4718 0.239801 64.1762C1.07122 65.8167 8.83862 66.9806 18.4032 66.6737C27.9645 66.9934 35.7319 65.8167 36.5665 64.1762C37.4299 62.4718 34.4081 60.6906 34.4081 60.6906Z" fill="#E0E0E0"/>
<path d="M34.4081 60.6906C34.6718 60.8398 34.9231 61.0098 35.1596 61.1991C35.4538 61.4206 35.7268 61.6689 35.975 61.941C36.335 62.3023 36.5932 62.7524 36.7233 63.2456C36.7788 63.5493 36.7409 63.8626 36.6145 64.1442C36.4502 64.4431 36.1979 64.6843 35.8919 64.8349C35.5743 65.0148 35.2402 65.1637 34.8941 65.2794C34.5239 65.4135 34.1472 65.5287 33.7653 65.6248C31.9623 66.0538 30.1288 66.3425 28.2811 66.4882C26.2218 66.6801 23.9482 66.7792 21.4955 66.7824C20.8847 66.7824 20.2579 66.7824 19.6248 66.7824C18.9916 66.7824 18.3456 66.7376 17.7061 66.7824C16.395 66.8176 15.0391 66.824 13.6481 66.7824C10.7147 66.7536 7.78724 66.51 4.8894 66.0533C4.12318 65.9249 3.36425 65.7563 2.61578 65.548C2.22666 65.4451 1.84432 65.318 1.47098 65.1675C1.09198 65.0212 0.738931 64.815 0.425305 64.5567C0.267364 64.4122 0.151362 64.2277 0.0895374 64.0227C0.0735485 63.9747 0.0511677 63.9236 0.0383766 63.8724L0.0191908 63.7157L0 63.559C0 63.5047 9.75646e-07 63.4535 0.0159899 63.3991C0.0728544 62.9841 0.238321 62.5913 0.495656 62.2607C1.01233 61.6111 1.64166 61.0598 2.35356 60.6331L2.32479 60.665C3.1015 59.0362 3.74321 57.3464 4.24345 55.6125C4.78388 53.857 5.27953 52.0598 5.756 50.2339C6.25485 48.3152 6.71533 46.4285 7.18541 44.561C7.41565 43.6273 7.64589 42.6999 7.87613 41.779C8.11276 40.8612 8.33021 39.9498 8.62761 39.0545C8.93735 38.1784 9.4284 37.3776 10.0687 36.7043C10.709 36.0309 11.4841 35.5002 12.3434 35.1468C13.1761 34.807 14.0663 34.6301 14.9656 34.6255H21.342C21.7529 34.6175 22.164 34.6336 22.5731 34.6735C23.3779 34.7624 24.1607 34.993 24.8851 35.3546C25.5848 35.7074 26.2178 36.1792 26.7558 36.7489C27.2817 37.2959 27.7071 37.9313 28.0125 38.626L28.2108 39.144C28.2652 39.3199 28.3195 39.4926 28.3675 39.6684C28.4602 40.017 28.5594 40.3591 28.6457 40.7013C29.0006 42.07 29.3204 43.3906 29.6306 44.6474C30.8522 49.6807 31.9106 53.7354 32.7996 56.4791C33.2313 57.8606 33.6406 58.9063 33.9284 59.613C34.0723 59.9647 34.2098 60.2173 34.2898 60.3964C34.3697 60.5755 34.4113 60.6682 34.4113 60.6682C34.4113 60.6682 34.2194 60.3197 33.8996 59.6258C33.5799 58.9318 33.1801 57.8766 32.7356 56.4983C31.8307 53.7451 30.7498 49.6903 29.5155 44.6666C29.1957 43.4098 28.8759 42.0923 28.521 40.7269C28.4346 40.3847 28.3355 40.0426 28.2396 39.694C28.1948 39.5181 28.1372 39.3487 28.0861 39.176C28.0349 39.0033 27.955 38.8562 27.891 38.6707C27.5961 37.99 27.1837 37.3665 26.6727 36.8288C25.5892 35.6945 24.1368 34.9836 22.5763 34.8238C22.1726 34.783 21.7667 34.7681 21.3612 34.779H17.5718C15.8738 34.8334 14.0542 34.5648 12.4138 35.2939C11.5755 35.6374 10.8189 36.1535 10.193 36.8086C9.56717 37.4636 9.08612 38.243 8.7811 39.096C8.4901 39.9722 8.27265 40.8932 8.03602 41.8077C7.79938 42.7223 7.57553 43.6529 7.34529 44.5866C6.88481 46.4573 6.41474 48.3504 5.91589 50.2659C5.43942 52.0918 4.95656 53.8921 4.40014 55.6509C3.9022 57.3938 3.26044 59.0923 2.48148 60.729V60.7482H2.45909C1.76632 61.1638 1.15338 61.6999 0.649148 62.3311C0.408027 62.6379 0.252462 63.0031 0.198265 63.3895C0.198265 63.4375 0.198265 63.4855 0.198265 63.5302L0.214255 63.6709L0.23024 63.8117C0.23024 63.8564 0.262218 63.9012 0.275009 63.946C0.329211 64.1252 0.430859 64.2866 0.569204 64.4128C0.868415 64.6591 1.20529 64.8556 1.56691 64.9948C1.92621 65.1449 2.2947 65.272 2.67015 65.3754C3.41322 65.5836 4.16683 65.7522 4.92778 65.8806C7.80402 66.3412 10.7099 66.5924 13.6225 66.6321C15.0146 66.6619 16.3662 66.6619 17.6773 66.6321C18.3169 66.5969 18.9788 66.6321 19.6152 66.6321C20.2515 66.6321 20.8719 66.6513 21.4827 66.6513C23.9322 66.6513 26.2026 66.5585 28.2588 66.3763C30.1025 66.2372 31.9329 65.9561 33.7334 65.5352C34.1267 65.4361 34.504 65.3274 34.8558 65.2155C35.198 65.1005 35.5288 64.9538 35.8439 64.7774C36.136 64.6389 36.3799 64.4162 36.5442 64.1378C36.6657 63.8684 36.7035 63.5688 36.6529 63.2776C36.5267 62.7959 36.2777 62.3552 35.9302 61.9985C35.6851 61.7261 35.4165 61.4757 35.1276 61.2502C34.8973 61.0648 34.7119 60.9305 34.584 60.8505L34.4081 60.6906Z" fill="#263238"/>
<path d="M28.1149 69.1711C29.1477 74.3483 33.145 93.6757 34.1555 98.5555C34.1854 98.6889 34.1852 98.8273 34.155 98.9606C34.1248 99.0939 34.0653 99.2189 33.9808 99.3264C33.8963 99.4338 33.7889 99.5211 33.6665 99.5819C33.544 99.6427 33.4096 99.6755 33.2729 99.6779C33.0736 99.6757 32.8806 99.6077 32.7239 99.4845C32.5672 99.3613 32.4556 99.1899 32.4063 98.9968L24.6069 69.9258C24.5411 69.6916 24.5297 69.4455 24.5734 69.2062C24.6171 68.9669 24.7148 68.7407 24.8592 68.5449C25.0035 68.3491 25.1906 68.1888 25.4062 68.0762C25.6218 67.9636 25.8603 67.9017 26.1035 67.8952H26.5959C26.9578 67.8988 27.3071 68.028 27.5842 68.2607C27.8613 68.4935 28.0489 68.8153 28.1149 69.1711Z" fill="#455A64"/>
<path d="M33.001 63.0154L32.9275 63.0346L32.7132 63.073L31.885 63.2009C31.1655 63.3096 30.1198 63.4471 28.8279 63.5942C26.2409 63.8884 22.653 64.173 18.6782 64.2338C14.7033 64.2945 11.1059 64.1282 8.51245 63.914C7.21416 63.8116 6.16528 63.7093 5.44259 63.623L4.61117 63.5238L4.39691 63.4919C4.37163 63.4911 4.3467 63.4856 4.32336 63.4759H4.39691H4.61436L5.44898 63.5462C6.17488 63.6134 7.22375 63.6965 8.52205 63.7861C11.1154 63.9619 14.7065 64.1058 18.675 64.0483C22.6434 63.9907 26.2281 63.7285 28.8151 63.4471C30.0943 63.316 31.1559 63.1977 31.8754 63.1081L32.71 63.009L32.9243 62.9898C32.9513 62.993 32.9775 63.0017 33.001 63.0154Z" fill="#263238"/>
<g opacity="0.3">
<path d="M30.9736 61.538C30.7242 60.9241 29.7297 60.7706 28.9143 60.7322C21.2711 60.3617 13.6102 60.657 6.01818 61.6148C5.80102 61.6249 5.58895 61.6839 5.39781 61.7875C5.22833 61.8994 5.15478 62.1072 5.30188 62.2511L5.2667 62.6317C12.8135 64.2913 20.8303 63.946 28.6105 63.1273C29.1962 63.1019 29.7726 62.9708 30.3117 62.7404C30.7978 62.4846 31.1527 61.9889 30.9736 61.538Z" fill="black"/>
</g>
<path d="M8.35259 44.7593C8.35259 44.7593 4.21787 48.4719 3.35766 52.6514C2.07855 58.7975 5.38825 63.5942 5.38825 63.5942C11.7582 63.9332 17.3927 64.2881 28.2652 63.5942L28.4506 47.6373L8.35259 44.7593Z" fill="#263238"/>
<path d="M18.5311 36.5314C18.4799 36.3555 17.0089 31.2007 17.0089 31.2007L23.0847 27.8111L24.8147 34.5712L18.5311 36.5314Z" fill="#003B88"/>
<path d="M34.5328 23.9641C33.9124 22.5731 32.8987 21.6937 31.303 21.1373L26.4584 19.7591H15.183C15.183 19.7591 9.98984 19.9541 8.12554 22.6019L9.14563 38.0695C9.14563 38.0695 9.42704 40.7972 6.47229 46.7643C6.47229 46.7643 8.71073 49.6423 12.3338 49.6423C15.9569 49.6423 28.3227 48.0722 28.3227 48.0722L29.557 41.3057L33.2249 33.1418C33.996 31.3988 34.5708 29.5755 34.9389 27.7055C35.1761 26.4457 35.0348 25.1438 34.5328 23.9641Z" fill="#003B88"/>
<path d="M19.8006 40.9859C19.7752 40.9278 19.7539 40.8679 19.7367 40.8069C19.6951 40.6757 19.6439 40.4871 19.5736 40.276C19.4329 39.8027 19.2314 39.1248 18.982 38.2774C18.4799 36.5442 17.7732 34.1043 16.9354 31.2199L16.9194 31.1624L16.9706 31.1336L23.0464 27.7375L23.1423 27.6864L23.1679 27.7887C23.2159 27.9742 23.267 28.1724 23.315 28.3707C23.8682 30.558 24.3958 32.6461 24.8755 34.552H24.7316C26.1194 31.5365 27.2898 28.9559 28.15 27.1204L29.1413 24.9938L29.4132 24.431C29.4408 24.3644 29.474 24.3003 29.5123 24.2392C29.4918 24.3082 29.4661 24.3755 29.4355 24.4406L29.1893 25.013L28.23 27.1587L24.8659 34.616L24.7732 34.8206L24.7188 34.6032C24.236 32.7005 23.7051 30.6091 23.1487 28.4251C23.0975 28.2268 23.0464 28.0285 23.0016 27.8431L23.1231 27.8974L17.0441 31.2711L17.0825 31.1847C17.8948 34.0627 18.5791 36.5218 19.0683 38.2582C19.3018 39.112 19.4872 39.7932 19.6216 40.2696C19.6791 40.4967 19.7271 40.6725 19.7591 40.8069C19.7779 40.8653 19.7918 40.9252 19.8006 40.9859Z" fill="#263238"/>
<path d="M8.71391 21.9304C8.00335 22.5341 7.43444 23.2868 7.04757 24.1352C6.66071 24.9835 6.46538 25.9066 6.47547 26.8389C6.54902 29.9728 10.0346 45.9649 12.4329 47.3047C14.9432 48.7149 16.1679 48.3408 17.5973 48.3408C19.0267 48.3408 29.5506 47.4326 29.5506 47.4326L29.5123 40.6661L17.8564 41.0403L13.7312 26.2857L8.71391 21.9304Z" fill="#003B88"/>
<path d="M7.31335 32.2304C7.31335 32.2304 7.33254 32.288 7.36132 32.3967C7.3901 32.5054 7.43487 32.6781 7.48923 32.886C7.59796 33.324 7.75785 33.9604 7.9625 34.7727C8.38141 36.4067 8.9762 38.7795 9.80762 41.683C10.0187 42.4089 10.2489 43.1636 10.5143 43.9439C10.7715 44.7555 11.1487 45.524 11.6335 46.2239C12.1634 46.9645 12.8949 47.5372 13.7409 47.8739C14.6486 48.2059 15.6166 48.3411 16.5805 48.2705C18.5727 48.1937 20.6673 48.0402 22.8354 47.8835L29.5507 47.3687L29.4739 47.4518V47.26C29.4739 44.9991 29.4484 42.7831 29.4388 40.6662L29.5219 40.7493L17.8628 41.1106H17.8085V41.0563C16.5773 36.6114 15.57 32.9211 14.8409 30.3341C14.4892 29.055 14.2014 28.0381 14.0255 27.341C13.9338 27.0021 13.8635 26.7398 13.8144 26.5544C13.7697 26.3753 13.7505 26.2825 13.7505 26.2825C13.7505 26.2825 13.7825 26.3721 13.8368 26.548C13.8912 26.7238 13.9647 26.9925 14.0639 27.3314C14.2653 28.0253 14.5531 29.0326 14.9177 30.3149C15.6468 32.8956 16.6892 36.5794 17.9428 41.0179L17.8724 40.9667L29.5315 40.583H29.6115V40.6662C29.6115 42.7927 29.637 44.9991 29.6498 47.2568V47.5094H29.5731L22.8577 48.021C20.6865 48.1745 18.5951 48.3248 16.5933 48.3984C15.6092 48.4689 14.6214 48.3282 13.6961 47.9859C12.8259 47.6357 12.0745 47.043 11.5312 46.2782C11.0397 45.5671 10.6591 44.7854 10.4024 43.9599C10.1402 43.1764 9.90995 42.4153 9.70529 41.6894C8.88666 38.7795 8.31106 36.4035 7.91134 34.7631C7.71947 33.9444 7.56918 33.3081 7.46365 32.87C7.41888 32.6589 7.3805 32.4926 7.35492 32.3743C7.32934 32.256 7.31335 32.2304 7.31335 32.2304Z" fill="#263238"/>
<g opacity="0.3">
<path d="M13.3699 47.8547C12.673 47.5436 12.0857 47.03 11.6847 46.3806C10.3864 44.4619 9.6701 41.6447 9.21922 39.6301L9.05933 39.4222C9.21739 41.4014 9.60478 43.3556 10.2137 45.2454C10.5623 46.2335 11.0036 47.244 11.8126 47.9027C12.5856 48.478 13.5291 48.7775 14.4924 48.7533C15.4474 48.7275 16.3965 48.5956 17.3224 48.36C16.5261 48.3472 14.6139 48.408 13.3699 47.8547Z" fill="black"/>
</g>
<g opacity="0.3">
<path d="M14.3676 28.5434L18.6462 40.1865L28.7288 40.6981L17.8627 41.0467L14.3676 28.5434Z" fill="black"/>
</g>
<path d="M39.259 76.3277L40.3303 84.1047C40.3303 84.1047 48.5933 85.6269 48.9323 87.0467L33.9283 89.6657L31.7634 77.6164L39.259 76.3277Z" fill="#003B88"/>
<path d="M35.5784 84.2646C35.441 84.3336 35.333 84.4498 35.2743 84.592C35.2156 84.7341 35.21 84.8926 35.2587 85.0385C35.3224 85.1778 35.4374 85.2872 35.5798 85.3438C35.7222 85.4004 35.8809 85.3998 36.0229 85.3423C36.1707 85.2725 36.2862 85.1488 36.3457 84.9966C36.4052 84.8444 36.4041 84.6751 36.3427 84.5237C36.2611 84.3849 36.1287 84.2833 35.9736 84.2404C35.8184 84.1974 35.6527 84.2164 35.5113 84.2934" fill="#E0E0E0"/>
<path d="M33.9732 89.9823L33.7686 88.8311L48.2129 86.4039C48.2129 86.4039 48.9324 86.5798 48.9388 87.0627L33.9732 89.9823Z" fill="#E0E0E0"/>
<path d="M40.5605 83.9864C40.5605 84.06 40.2088 84.1559 39.8922 84.4565C39.5756 84.7571 39.4317 85.0961 39.3614 85.0769C39.291 85.0577 39.323 84.6196 39.7163 84.2646C40.1096 83.9097 40.5637 83.9161 40.5605 83.9864Z" fill="#263238"/>
<path d="M42.249 84.3542C42.2777 84.4213 41.9804 84.6004 41.7853 84.9553C41.5902 85.3103 41.5774 85.6493 41.5039 85.6589C41.4303 85.6684 41.312 85.2591 41.5614 84.8274C41.8109 84.3957 42.233 84.2934 42.249 84.3542Z" fill="#263238"/>
<path d="M43.4705 86.0905C43.4065 86.1161 43.2402 85.7708 43.3586 85.3359C43.4769 84.901 43.7903 84.6803 43.8318 84.7379C43.8734 84.7954 43.7007 85.0577 43.608 85.403C43.5153 85.7484 43.5408 86.0714 43.4705 86.0905Z" fill="#263238"/>
<path d="M40.1193 82.2404C40.1001 82.314 39.7452 82.2724 39.339 82.3715C38.9329 82.4707 38.6291 82.6593 38.578 82.6018C38.5268 82.5442 38.7954 82.2308 39.2783 82.1189C39.7612 82.007 40.1449 82.1765 40.1193 82.2404Z" fill="#263238"/>
<path d="M29.4259 84.0344L30.5452 92.1599L37.1422 99.0639C37.2419 99.1711 37.3186 99.2976 37.3674 99.4356C37.4163 99.5736 37.4362 99.7202 37.426 99.8662C37.4158 100.012 37.3757 100.155 37.3082 100.285C37.2406 100.414 37.1471 100.529 37.0334 100.621C36.9015 100.729 36.7453 100.804 36.5782 100.838C36.4111 100.873 36.2381 100.866 36.0741 100.82C33.9508 100.225 24.1496 96.6017 24.1496 96.6017C23.7691 94.9548 22.4292 87.2514 22.4292 87.2514L29.4259 84.0344Z" fill="#003B88"/>
<path d="M23.9098 95.6039L37.0207 100.631C36.7489 100.861 36.3811 101.127 36.039 101.031L24.3703 96.8255C24.3157 96.8064 24.2668 96.7739 24.2282 96.7308C24.1896 96.6877 24.1626 96.6356 24.1496 96.5793L23.9098 95.6039Z" fill="#E0E0E0"/>
<path d="M26.1993 93.746C26.3575 93.7674 26.502 93.8472 26.6043 93.9697C26.7067 94.0922 26.7596 94.2485 26.7525 94.408C26.7364 94.5643 26.6612 94.7085 26.5424 94.8113C26.4235 94.9141 26.27 94.9677 26.113 94.9612C25.9454 94.9398 25.7918 94.857 25.6819 94.7288C25.572 94.6006 25.5137 94.4361 25.5182 94.2673C25.5515 94.1031 25.6478 93.9586 25.7865 93.8647C25.9253 93.7708 26.0953 93.7351 26.2601 93.7652" fill="white"/>
<path d="M31.4181 96.3714C31.4821 96.3714 31.5684 95.7958 32.0896 95.3545C32.6109 94.9132 33.1929 94.8876 33.1897 94.8205C33.1865 94.7533 33.0426 94.7501 32.7996 94.7789C32.4811 94.8292 32.1834 94.9685 31.9407 95.1807C31.698 95.3928 31.5202 95.6693 31.4277 95.9781C31.3669 96.2179 31.3893 96.3714 31.4181 96.3714Z" fill="#263238"/>
<path d="M33.1034 97.7049C33.1673 97.7241 33.3016 97.2668 33.7046 96.8767C34.1075 96.4865 34.5552 96.3458 34.5392 96.2819C34.5232 96.2179 33.9956 96.2595 33.5447 96.7136C33.0938 97.1677 33.0394 97.7081 33.1034 97.7049Z" fill="#263238"/>
<path d="M29.4323 95.1051C29.4899 95.1403 29.8736 94.5167 30.5995 94.0275C31.3254 93.5382 32.0385 93.3879 32.0257 93.3335C32.0129 93.2792 31.2423 93.308 30.4684 93.8388C29.6945 94.3696 29.3748 95.0859 29.4323 95.1051Z" fill="#263238"/>
<path d="M28.8247 16.0784C28.636 15.1703 28.8247 14.2301 28.9846 13.3156C29.1444 12.401 29.2244 11.4193 28.8375 10.5751C28.3514 9.5134 27.2386 8.89942 26.5287 7.96567C25.8187 7.03192 25.5949 5.82956 25.3167 4.69115C25.0385 3.55274 24.6452 2.35997 23.7402 1.61169C22.5986 0.652359 20.0308 0.873006 18.9691 1.91228C19.8357 8.5061 19.3433 15.4005 21.7704 21.5882C25.0134 21.2064 28.0872 19.9335 30.6506 17.9108C29.7232 17.8692 29.0133 16.9866 28.8247 16.0784Z" fill="#263238"/>
<path d="M16.2863 22.0615L12.0396 6.67377C11.9661 6.32529 12.0262 5.9619 12.208 5.65567C12.3899 5.34944 12.6802 5.12274 13.0213 5.02052L20.0852 1.7428C22.4132 1.04248 24.5621 3.66146 25.1473 6.02462C25.8157 8.6404 26.5256 11.8638 26.5863 13.8975C26.7078 17.9907 23.7563 19.0747 23.7563 19.0747L24.3255 23.3981L23.088 27.7279L19.2986 29.8065L16.2863 22.0615Z" fill="#FFBE9D"/>
<path d="M24.1559 9.2256C24.1826 9.35818 24.1565 9.49595 24.083 9.60948C24.0095 9.723 23.8945 9.80329 23.7626 9.83318C23.699 9.85046 23.6325 9.85487 23.5672 9.84616C23.5018 9.83744 23.4388 9.81577 23.382 9.78242C23.3251 9.74907 23.2754 9.7047 23.2359 9.65192C23.1964 9.59913 23.1678 9.539 23.1518 9.47503C23.1251 9.34245 23.1513 9.20469 23.2248 9.09116C23.2983 8.97763 23.4132 8.89734 23.5451 8.86745C23.6088 8.84971 23.6753 8.84496 23.7408 8.85347C23.8064 8.86199 23.8695 8.8836 23.9265 8.91702C23.9835 8.95043 24.0331 8.99498 24.0726 9.04799C24.112 9.101 24.1403 9.1614 24.1559 9.2256Z" fill="#263238"/>
<path d="M24.6612 7.65229C24.6101 7.73223 24.172 7.51798 23.6219 7.62351C23.0719 7.72904 22.7234 8.07759 22.6626 8.02323C22.6018 7.96887 22.6626 7.86654 22.8193 7.70346C23.0257 7.49427 23.2914 7.35361 23.5804 7.30053C23.8659 7.24558 24.1614 7.28252 24.4246 7.40606C24.6069 7.50839 24.6868 7.60752 24.6612 7.65229Z" fill="#263238"/>
<path d="M19.1547 10.2265C19.1806 10.359 19.154 10.4964 19.0807 10.6097C19.0073 10.723 18.8929 10.8035 18.7614 10.8341C18.6975 10.8513 18.6309 10.8556 18.5653 10.8467C18.4998 10.8378 18.4367 10.8158 18.3798 10.7821C18.3229 10.7485 18.2733 10.7037 18.2339 10.6506C18.1946 10.5975 18.1662 10.537 18.1506 10.4727C18.1239 10.3402 18.1501 10.2024 18.2236 10.0889C18.297 9.97533 18.412 9.89504 18.5439 9.86515C18.6078 9.84792 18.6744 9.84363 18.7399 9.85255C18.8055 9.86147 18.8686 9.88342 18.9255 9.91709C18.9824 9.95077 19.032 9.99549 19.0714 10.0486C19.1107 10.1018 19.1391 10.1622 19.1547 10.2265Z" fill="#263238"/>
<path d="M19.6599 8.97298C19.6087 9.05292 19.1706 8.83867 18.6206 8.94419C18.0706 9.04972 17.722 9.40147 17.6613 9.34391C17.6005 9.28635 17.6613 9.18722 17.818 9.02414C18.0243 8.81496 18.29 8.6743 18.579 8.62122C18.8646 8.56779 19.1596 8.60468 19.4232 8.72675C19.6055 8.82907 19.6982 8.9378 19.6599 8.97298Z" fill="#263238"/>
<path d="M22.1606 12.6632C22.4329 12.5213 22.7219 12.4138 23.0208 12.3434C23.1583 12.3019 23.2862 12.2475 23.2894 12.1484C23.2748 12.002 23.2156 11.8636 23.1199 11.7518L22.5027 10.7637C21.6393 9.35351 20.987 8.18313 21.0445 8.14795C21.1021 8.11277 21.8472 9.2288 22.7106 10.639L23.3086 11.6367C23.4284 11.7896 23.4906 11.9798 23.4845 12.1739C23.4739 12.2267 23.4514 12.2763 23.4187 12.319C23.386 12.3617 23.344 12.3963 23.2958 12.4202C23.2211 12.4553 23.1429 12.4821 23.0623 12.5001C22.7702 12.5936 22.467 12.6484 22.1606 12.6632Z" fill="#263238"/>
<path d="M23.7659 19.0843C21.9001 19.4665 19.9648 19.3226 18.1761 18.6686C18.1761 18.6686 20.0468 21.2492 23.9545 20.1268L23.7659 19.0843Z" fill="#EB996E"/>
<path d="M19.2154 6.67057C19.1898 6.83046 18.6302 6.86243 18.0003 7.0607C17.3703 7.25896 16.8842 7.53397 16.7723 7.41565C16.7243 7.36129 16.7883 7.2014 16.9706 7.01913C17.2136 6.78525 17.51 6.61404 17.834 6.52028C18.1562 6.41796 18.4982 6.39384 18.8317 6.44992C19.0843 6.50109 19.225 6.59383 19.2154 6.67057Z" fill="#E0E0E0"/>
<path d="M24.2231 6.00863C24.1496 6.14933 23.7466 6.09177 23.2926 6.17172C22.8385 6.25166 22.4675 6.41475 22.3556 6.29963C22.3044 6.24527 22.3556 6.10776 22.4867 5.95747C22.6848 5.77218 22.9347 5.6517 23.203 5.61211C23.4715 5.56647 23.7476 5.60559 23.9929 5.72403C24.1751 5.81357 24.2519 5.93189 24.2231 6.00863Z" fill="#263238"/>
<path d="M20.9774 1.50617C20.0181 -0.127899 18.5056 -0.0415588 16.8875 0.03199C15.2694 0.105539 13.0182 1.17999 11.851 2.30241C10.9396 3.1786 9.93232 4.26585 9.35672 5.39147C8.78112 6.51708 8.666 7.62991 8.39738 8.80989C7.99446 10.655 8.34302 12.5673 8.54448 14.4444C8.79766 16.8031 8.81587 19.1811 8.59884 21.5434C8.52209 22.3908 8.46454 23.3981 9.62213 23.6923C9.83785 23.7429 10.0595 23.7634 10.2809 23.7531C11.9981 23.7019 13.7153 24.0217 15.6052 23.849L16.7596 23.6604C18.2242 23.4269 18.8093 22.3077 18.5567 21.0478C17.7956 17.2392 15.0392 11.2274 14.6426 10.0506C14.6394 10.0506 12.6792 1.66605 20.9774 1.50617Z" fill="#263238"/>
<path d="M20.437 1.63087C20.2251 1.87311 20.0648 2.15597 19.9659 2.4622C19.8669 2.76843 19.8314 3.09161 19.8614 3.41203C19.8614 4.05159 20.0149 4.69114 19.9957 5.3307C19.9742 5.97723 19.797 6.60903 19.4791 7.17242C19.1612 7.73582 18.7121 8.21417 18.1698 8.56685C17.8244 8.78749 17.3224 8.93459 17.041 8.6372C17.1234 9.07705 17.0721 9.53152 16.8937 9.94193C16.7153 10.3523 16.4179 10.6998 16.0401 10.9396C15.4868 11.2594 14.8185 11.3393 14.2173 11.5792C13.6161 11.819 13.0341 12.3498 13.1013 12.9926L12.142 8.60202L12.7623 4.48328L16.2287 1.60529L20.437 1.63087Z" fill="#263238"/>
<path d="M14.8153 10.0218C14.9326 9.91358 15.0396 9.79476 15.1351 9.66689C15.3716 9.30269 15.5175 8.8871 15.5604 8.45493C15.6136 7.81584 15.6019 7.17298 15.5252 6.53627C15.431 5.74695 15.3968 4.95162 15.4229 4.15713C15.4543 3.35381 15.6994 2.5734 16.1328 1.8963C16.329 1.60446 16.5812 1.35447 16.8747 1.16081C17.1305 0.994129 17.4143 0.874972 17.7125 0.809053C18.1434 0.702116 18.5972 0.735726 19.0076 0.904983C19.0713 0.932013 19.1332 0.962988 19.1931 0.997721C19.2368 1.02205 19.2785 1.04985 19.3178 1.08086C19.3523 1.10432 19.3844 1.13109 19.4137 1.16081C19.2814 1.07226 19.1412 0.99625 18.9948 0.933766C18.5867 0.775606 18.1392 0.749871 17.7157 0.860214C17.0873 1.0129 16.54 1.39795 16.184 1.93787C15.7591 2.60948 15.5207 3.38208 15.4932 4.17631C15.467 4.96638 15.4991 5.75731 15.5892 6.54267C15.6653 7.18818 15.6718 7.84002 15.6084 8.48691C15.5591 8.92659 15.402 9.3473 15.1511 9.71166C15.0565 9.8324 14.9431 9.93713 14.8153 10.0218Z" fill="#455A64"/>
<path d="M11.4 10.0186C11.5978 9.96659 11.7873 9.88693 11.9628 9.78201C12.4231 9.45899 12.7868 9.01683 13.0149 8.5029C13.1841 8.15662 13.3191 7.79461 13.4178 7.42205C13.5181 6.9927 13.5558 6.5511 13.5297 6.11097C13.5106 5.64409 13.453 5.15163 13.4274 4.64318C13.413 4.38223 13.413 4.12068 13.4274 3.85973C13.4472 3.58965 13.4922 3.322 13.5617 3.06028C13.8435 2.06078 14.4892 1.20293 15.3717 0.655553C16.0936 0.216233 16.9383 0.0221731 17.7796 0.102339C18.3404 0.149851 18.8851 0.314337 19.3785 0.585202C19.5607 0.681979 19.7322 0.797743 19.8901 0.930562L19.8549 0.911376L19.7558 0.844226C19.7032 0.807372 19.6488 0.773216 19.5927 0.741894C19.5256 0.703521 19.452 0.655553 19.3625 0.610784C18.8655 0.353334 18.3217 0.198887 17.7636 0.156701C16.9353 0.086151 16.1062 0.282231 15.3972 0.716312C14.5309 1.25582 13.8978 2.09995 13.6225 3.08267C13.5541 3.338 13.5102 3.59926 13.4914 3.86292C13.4754 4.12514 13.4914 4.38416 13.4914 4.63679C13.517 5.14524 13.5745 5.63769 13.5905 6.10776C13.6167 6.55477 13.5758 7.00319 13.469 7.43804C13.3681 7.81478 13.2288 8.18018 13.0533 8.52848C12.8178 9.04728 12.4424 9.4902 11.9692 9.80759C11.8372 9.88599 11.6952 9.94623 11.5471 9.98667L11.432 10.0123C11.4128 10.0186 11.4 10.0218 11.4 10.0186Z" fill="#455A64"/>
<path d="M17.0409 8.62762C17.0416 8.64041 17.0416 8.65321 17.0409 8.666C17.0409 8.69478 17.0409 8.73315 17.0409 8.77792C17.0409 8.82269 17.0409 8.88984 17.0409 8.96019C17.0409 9.03054 17.0409 9.11688 17.0409 9.21282C17.0209 9.44266 16.9693 9.66864 16.8874 9.88435C16.7799 10.1759 16.6109 10.441 16.3918 10.6614C15.7842 11.2155 15.0059 11.546 14.1853 11.5984C13.6995 11.6497 13.2097 11.6497 12.7239 11.5984C12.1954 11.5524 11.6757 11.4341 11.1794 11.2466L11.0803 11.205L11.1826 11.1731C11.7534 10.9975 12.293 10.7331 12.7815 10.3896L12.8071 10.3736L12.8422 10.4408C11.6847 10.8225 10.4318 10.7988 9.28951 10.3736L9.21277 10.3448L9.28632 10.3097C9.98914 9.96811 10.6266 9.50596 11.1698 8.9442C11.5911 8.49818 11.882 7.94516 12.0108 7.34531C12.0804 6.95291 12.0804 6.55134 12.0108 6.15894L11.9373 5.83916C11.9373 5.80718 11.9373 5.7784 11.9181 5.75922C11.8989 5.74003 11.9181 5.73044 11.9181 5.73044V5.75602L11.9405 5.83597C11.9629 5.90951 11.9884 6.01184 12.0268 6.15574C12.1395 6.65624 12.1241 7.17707 11.9822 7.67006C11.8402 8.16305 11.5762 8.61228 11.2146 8.97618C10.6721 9.54887 10.0308 10.019 9.32149 10.364V10.3001C10.4532 10.7188 11.6936 10.7402 12.839 10.3608L13.0885 10.2777L12.8742 10.428L12.8486 10.4472C12.3602 10.793 11.8207 11.0606 11.2498 11.2402V11.1699C11.7398 11.3554 12.2531 11.4727 12.7751 11.5184C13.2544 11.5712 13.738 11.5712 14.2173 11.5184C15.0256 11.4717 15.7943 11.1527 16.3982 10.6134C16.6142 10.3992 16.7831 10.1421 16.8938 9.85876C16.9758 9.64585 17.0306 9.42345 17.0569 9.19683C17.0569 9.10409 17.0569 9.02095 17.0729 8.9474C17.0761 8.88669 17.0761 8.82584 17.0729 8.76513V8.65321C17.0628 8.64406 17.0521 8.63552 17.0409 8.62762Z" fill="#455A64"/>
<path d="M10.7829 22.0615C10.7606 22.0615 10.6422 19.7559 10.5143 16.9099C10.3864 14.0638 10.3033 11.755 10.3257 11.755C10.348 11.755 10.4664 14.0606 10.5911 16.9067C10.7158 19.7527 10.8053 22.0583 10.7829 22.0615Z" fill="#455A64"/>
<path d="M13.1332 22.2501C13.1201 22.2204 13.1104 22.1893 13.1044 22.1574C13.0852 22.0871 13.0628 21.9975 13.0373 21.8856C12.9765 21.6522 12.8998 21.31 12.8102 20.8879C12.6248 20.0405 12.3977 18.8637 12.1931 17.559C11.9884 16.2543 11.8445 15.0647 11.7614 14.2045C11.7166 13.7728 11.6878 13.4243 11.6686 13.1845C11.6686 13.0693 11.6686 12.9766 11.6686 12.9062C11.6658 12.8733 11.6658 12.8401 11.6686 12.8071C11.6734 12.8389 11.6734 12.8713 11.6686 12.903C11.6686 12.9734 11.6878 13.0661 11.7038 13.1813C11.7294 13.4307 11.7709 13.776 11.8189 14.1981C11.9148 15.0584 12.0683 16.2447 12.273 17.5494C12.4777 18.8541 12.6951 20.0277 12.8646 20.8751C12.9509 21.294 13.0181 21.633 13.0692 21.8792C13.0916 21.9911 13.1076 22.0839 13.1204 22.1542C13.1284 22.1856 13.1327 22.2178 13.1332 22.2501Z" fill="#455A64"/>
<path d="M22.7777 13.5586C22.6891 13.4879 22.5867 13.4367 22.4771 13.4083H22.4963C22.3557 13.3339 22.1957 13.3045 22.0379 13.3239C21.8801 13.3434 21.732 13.4108 21.6137 13.517C21.4779 13.648 21.392 13.8221 21.3706 14.0095C21.3332 14.2042 21.3661 14.4059 21.4634 14.5787C21.5725 14.7335 21.7356 14.8419 21.9207 14.8825C22.1052 14.9208 22.2957 14.9208 22.4803 14.8825C22.6585 14.8603 22.8247 14.7806 22.9535 14.6554C23.045 14.5433 23.0957 14.4035 23.0974 14.2589C23.1017 14.1254 23.0751 13.9928 23.0196 13.8713C22.9641 13.7498 22.8813 13.6428 22.7777 13.5586Z" fill="#EB996E"/>
<path d="M23.1742 14.3996C23.1742 14.3996 23.1742 14.358 23.1742 14.3005C23.1671 14.2611 23.1518 14.2236 23.1292 14.1905C23.1066 14.1575 23.0772 14.1296 23.0431 14.1086C22.9212 14.065 22.7918 14.0465 22.6626 14.0542C22.4967 14.0532 22.3316 14.078 22.1733 14.1278C21.8743 14.2082 21.5857 14.323 21.3131 14.47C21.0893 14.5691 20.939 14.6011 20.9326 14.5819C20.9262 14.5627 21.0573 14.4891 21.2524 14.3644C21.5195 14.1843 21.8144 14.0492 22.1254 13.9647C22.2181 13.9423 22.298 13.9231 22.3972 13.9071C22.4845 13.9009 22.5721 13.9009 22.6594 13.9071C22.8147 13.9054 22.9679 13.944 23.1039 14.0191C23.1487 14.0522 23.1841 14.0965 23.2066 14.1476C23.229 14.1986 23.2377 14.2546 23.2318 14.3101C23.2158 14.3836 23.1806 14.406 23.1742 14.3996Z" fill="#263238"/>
<path d="M29.5219 41.6447C29.5219 41.6447 33.4391 41.0691 34.4049 41.4464C35.3706 41.8237 40.2504 44.1805 40.8004 45.2006C41.3504 46.2207 42.6231 48.0434 42.7862 48.9548C42.9493 49.8661 43.106 52.6003 43.106 52.6003C42.7827 52.5892 42.4756 52.456 42.2466 52.2275C42.0176 51.9991 41.8836 51.6924 41.8717 51.3691L41.4975 52.6003C41.4975 52.6003 40.4774 52.8689 40.3175 52.1717C40.3175 52.1717 39.726 52.9232 39.4605 51.2124C39.3245 50.4726 39.2348 49.725 39.1919 48.974L38.3861 47.794L38.8146 49.3705L38.6003 51.7624C38.6003 51.7624 37.7433 51.7624 37.689 51.011C37.6272 50.4517 37.5016 49.9013 37.3148 49.3705L36.2404 47.6853C36.2404 47.6853 33.5287 46.2719 32.9211 45.5939C32.6439 45.3289 32.4155 45.0171 32.2464 44.673L29.5698 45.5651L29.5219 41.6447Z" fill="#FFBE9D"/>
<path d="M41.0626 52.661C40.8865 52.6687 40.7117 52.6278 40.5574 52.5427C40.4929 52.5047 40.437 52.4538 40.393 52.3933C40.349 52.3328 40.3179 52.2639 40.3016 52.1909C40.2594 52.2429 40.2047 52.2834 40.1426 52.3086C40.0805 52.3337 40.0131 52.3428 39.9466 52.3348C39.7164 52.2741 39.5469 51.8967 39.4382 51.2092C39.3043 50.4691 39.2146 49.7216 39.1695 48.9708L38.3925 47.8324L38.8114 49.3609L38.5939 51.7624C38.5939 51.7624 37.7273 51.7624 37.673 51.0045C37.6123 50.4451 37.4867 49.8946 37.2988 49.3641L36.2276 47.6821C36.1444 47.6373 33.5031 46.2558 32.9115 45.5907C32.6381 45.324 32.4092 45.0153 32.2336 44.6762L29.557 45.5683L29.5219 41.6606C29.5602 41.6606 33.4519 41.0914 34.4081 41.4624C34.8973 41.6542 36.3715 42.345 37.7593 43.0996C38.9841 43.7648 40.5062 44.673 40.794 45.223C40.9635 45.5427 41.2065 45.9425 41.4655 46.3678C42.0284 47.2983 42.6679 48.3504 42.7798 48.9804C42.9397 49.8821 43.0996 52.6002 43.0996 52.6258C42.9042 52.6154 42.7133 52.5631 42.54 52.4723C42.3487 52.3657 42.1865 52.2137 42.0678 52.0297C41.949 51.8457 41.8773 51.6353 41.8589 51.4171L41.4911 52.6226C41.3502 52.6514 41.2064 52.6643 41.0626 52.661ZM40.308 52.1557V52.1717C40.3242 52.2456 40.3552 52.3155 40.3992 52.377C40.4431 52.4386 40.4991 52.4906 40.5638 52.5299C40.8517 52.6532 41.1728 52.6757 41.4751 52.5938L41.8589 51.3307V51.3659C41.8713 51.6859 42.0034 51.9897 42.229 52.217C42.4546 52.4444 42.7573 52.5789 43.0772 52.5938C43.0772 52.4244 42.9077 49.831 42.7574 48.9548C42.6487 48.3312 42.0092 47.2791 41.4432 46.3486C41.1873 45.9265 40.9411 45.5236 40.7748 45.2038C40.6085 44.884 39.9626 44.2892 37.7465 43.0869C36.3587 42.3354 34.8845 41.6415 34.3953 41.4528C33.4615 41.0882 29.7105 41.6255 29.5251 41.651L29.5602 45.5363L32.2304 44.6442C32.4035 44.984 32.6315 45.293 32.9051 45.5587C33.5031 46.2303 36.1956 47.6373 36.2212 47.6501L37.2956 49.3321C37.4824 49.8653 37.6089 50.4177 37.673 50.979C37.7209 51.6761 38.4852 51.7208 38.5684 51.724L38.7826 49.3385L38.3413 47.7172L39.1727 48.9388C39.2164 49.6897 39.3061 50.4373 39.4414 51.1772C39.5725 52.0246 39.7867 52.2517 39.9402 52.2932H39.9978C40.111 52.2797 40.2143 52.2223 40.2856 52.1334L40.308 52.1557Z" fill="#EB996E"/>
<path d="M32.2048 41.3185H31.0887V45.1398H32.2048V41.3185Z" fill="#263238"/>
<path d="M32.9594 40.567H30.3308V41.3185H32.9594V40.567Z" fill="#455A64"/>
<path d="M19.9574 19.4169C19.9574 19.4169 18.6782 20.0341 18.6782 21.0446C18.6782 22.0551 18.464 30.251 18.464 30.251L23.0848 27.6544L22.3333 22.2182L27.3314 19.1547C27.3314 19.1547 28.2908 17.4503 28.198 16.9162C28.1053 16.3822 27.1172 15.3429 26.6311 15.3973C26.4795 15.4221 26.3345 15.4777 26.2053 15.5608C26.076 15.6438 25.9652 15.7525 25.8796 15.8802L24.3735 16.1999C24.3735 16.1999 24.4822 17.1593 25.1282 17.1145L25.5567 17.0601L25.5023 17.4343L24.7508 17.9747L19.9574 19.4169Z" fill="#FFBE9D"/>
<path d="M19.9573 19.4169L20.0372 19.3849L20.277 19.305L21.2108 19.0076L24.7284 17.9171H24.7124L25.4638 17.3767L25.4415 17.4151C25.4574 17.3 25.4734 17.1689 25.4926 17.0378L25.5566 17.1049L25.1409 17.1593C25.0613 17.1682 24.9807 17.1612 24.9039 17.1387C24.827 17.1161 24.7554 17.0786 24.6932 17.0282C24.4699 16.8039 24.3319 16.5087 24.303 16.1935V16.136H24.3638L25.87 15.8162L25.8252 15.8482C25.9526 15.655 26.1322 15.5019 26.3432 15.4069C26.4535 15.356 26.5735 15.3298 26.695 15.3301C26.8173 15.34 26.9355 15.3783 27.0403 15.4421C27.4459 15.6877 27.7904 16.0223 28.0476 16.4206C28.1167 16.5211 28.1756 16.6282 28.2235 16.7404C28.2771 16.8618 28.2948 16.9961 28.2747 17.1273C28.2331 17.3736 28.1622 17.6141 28.0636 17.8436C27.8716 18.3089 27.6505 18.7618 27.4017 19.1995V19.2154L22.4036 22.2821L22.4419 22.199C22.4675 22.3717 22.4931 22.5571 22.5187 22.7426C22.7521 24.431 22.9792 26.0715 23.1934 27.6384V27.6927L23.1455 27.7215L18.4927 30.3117L18.3776 30.3757V30.2478C18.4703 26.8517 18.547 24.0121 18.5982 22.0071C18.5982 21.7577 18.6142 21.521 18.6206 21.2972C18.6138 21.0819 18.6364 20.8668 18.6877 20.6576C18.8058 20.3433 19.0043 20.0654 19.2633 19.8518C19.4679 19.6663 19.7012 19.5151 19.9541 19.4041C19.9541 19.4041 19.9541 19.4041 19.9093 19.4361L19.7782 19.516C19.6049 19.6242 19.4422 19.7484 19.2921 19.887C19.0462 20.0999 18.86 20.3732 18.7517 20.68C18.7064 20.8792 18.6881 21.0836 18.6973 21.2876C18.6973 21.5114 18.6973 21.7481 18.6973 21.9975C18.659 24.0025 18.6046 26.8453 18.5375 30.2414L18.4287 30.1742L23.0463 27.568L23.0047 27.6512C22.7873 26.0843 22.5603 24.4534 22.3236 22.7554C22.298 22.5699 22.2725 22.3844 22.2501 22.2118V22.1574L22.2948 22.1286L27.2962 19.0683L27.2674 19.0971C27.5133 18.6667 27.7323 18.2213 27.9229 17.7637C28.0177 17.5479 28.0854 17.3213 28.1244 17.0889C28.1375 16.8667 28.0668 16.6476 27.9261 16.4749C27.6786 16.0972 27.3511 15.7784 26.9668 15.5412C26.8815 15.4887 26.7852 15.4569 26.6854 15.4485C26.5861 15.447 26.4878 15.4677 26.3976 15.5092C26.2128 15.5941 26.0539 15.7265 25.9371 15.893L25.9211 15.9185H25.8955L24.3894 16.2383L24.4405 16.168C24.4626 16.4512 24.5824 16.718 24.7795 16.9226C24.8288 16.9626 24.8856 16.9923 24.9466 17.0099C25.0076 17.0274 25.0715 17.0326 25.1345 17.025L25.5502 16.977H25.6269V17.0505C25.6077 17.1849 25.5886 17.3128 25.5726 17.4279V17.4535H25.5534L24.7987 17.9875L21.2812 19.0332L20.3218 19.305L20.0788 19.3721L19.9573 19.4169Z" fill="#EB996E"/>
<path d="M26.1642 18.4544C26.1482 18.4352 26.3017 18.2977 26.5255 18.0578C26.6538 17.9206 26.7615 17.7655 26.8453 17.5974C26.9376 17.392 26.9708 17.165 26.9413 16.9418C26.9223 16.712 26.8794 16.4848 26.8133 16.2639C26.7851 16.1843 26.7318 16.116 26.6615 16.0693C26.5911 16.0226 26.5075 16 26.4232 16.0049C26.2889 16.0056 26.1548 15.9917 26.0235 15.9633C25.9276 15.9313 25.8924 15.8866 25.8956 15.8802C25.8988 15.8738 25.9499 15.8802 26.0363 15.8993C26.1662 15.9061 26.2965 15.9061 26.4264 15.8993C26.5274 15.894 26.6282 15.9126 26.7206 15.9537C26.8282 16.0117 26.9119 16.1056 26.9572 16.2191C27.0382 16.4526 27.0887 16.6955 27.1075 16.9418C27.1395 17.195 27.0961 17.4519 26.9828 17.6805C26.8857 17.8591 26.758 18.0193 26.6055 18.1538C26.4808 18.2835 26.3305 18.3858 26.1642 18.4544Z" fill="#EB996E"/>
<path d="M26.2601 55.5742C24.3191 53.016 20.2035 52.7921 18.093 55.2256C17.3646 56.0543 16.9723 57.1252 16.993 58.2283C16.993 63.2808 19.7175 76.9321 20.3155 80.9325C20.955 85.2176 22.733 92.5501 22.733 92.5501L31.4597 91.3125C31.4597 91.3125 28.1852 65.66 27.7791 62.6541C27.3729 59.6481 26.7494 57.0675 26.7494 57.0675L26.2601 55.5742Z" fill="#263238"/>
<path d="M11.7869 50.963C12.0556 50.7839 24.2583 46.2431 26.3944 45.7986C28.5305 45.3541 30.5163 45.111 32.9083 47.3303C35.831 50.0356 41.1585 82.4387 41.1585 82.4387C41.1585 82.4387 32.1696 83.964 32.1696 83.785C32.1696 83.6059 26.0107 57.2434 26.0107 57.2434L15.1798 64.1762L9.15198 55.2224L11.7869 50.963Z" fill="#263238"/>
<path d="M28.6009 67.5978C28.59 67.5723 28.5825 67.5454 28.5785 67.5179C28.5785 67.4539 28.5529 67.374 28.5337 67.2748C28.4986 67.0478 28.4474 66.7376 28.3835 66.3411C28.2587 65.5161 28.0861 64.3457 27.8686 62.9035C27.6512 61.4613 27.373 59.7313 26.8933 57.8478C26.6709 56.8657 26.2931 55.9254 25.7741 55.0625C25.2053 54.1444 24.3632 53.4276 23.3661 53.0127C22.3521 52.6368 21.2368 52.6368 20.2227 53.0127C19.2711 53.3407 18.4333 53.9344 17.8084 54.7236C17.2902 55.4784 17.0004 56.3666 16.9738 57.2818C16.9194 58.1356 16.9546 58.9446 16.9738 59.6737C17.0633 61.1319 17.2712 62.3087 17.3319 63.1273C17.3671 63.5366 17.3831 63.8564 17.3895 64.0707V64.3169C17.393 64.3456 17.393 64.3746 17.3895 64.4032C17.3859 64.3746 17.3859 64.3456 17.3895 64.3169C17.3895 64.2497 17.3895 64.1698 17.3703 64.0707C17.3543 63.8564 17.3287 63.5366 17.284 63.1305C17.204 62.3151 16.9642 61.1479 16.8715 59.6769C16.8233 58.8752 16.8159 58.0715 16.8491 57.269C16.8739 56.3302 17.1693 55.4186 17.6997 54.6436C18.3385 53.826 19.2003 53.2107 20.1811 52.872C21.2323 52.4818 22.3886 52.4818 23.4397 52.872C24.469 53.3019 25.3379 54.0433 25.9244 54.9922C26.4489 55.866 26.83 56.8182 27.0532 57.8126C27.5169 59.7025 27.7855 61.4325 27.9965 62.8843C28.2076 64.3361 28.3451 65.5033 28.457 66.3315C28.5082 66.728 28.5497 67.0414 28.5785 67.2684C28.5785 67.3676 28.5977 67.4507 28.6041 67.5147C28.6067 67.5424 28.6056 67.5704 28.6009 67.5978Z" fill="#455A64"/>
<path d="M21.0637 47.551C21.02 47.5803 20.9727 47.604 20.923 47.6213L20.5009 47.794C20.1363 47.9443 19.6023 48.1489 18.9404 48.4016C17.6229 48.9036 15.7874 49.5752 13.7664 50.3202C11.7454 51.0653 9.92904 51.7496 8.60516 52.2741L7.05424 52.8976L6.63213 53.0671C6.58336 53.09 6.53173 53.1061 6.47864 53.1151C6.47864 53.1151 6.5234 53.0831 6.61614 53.0352L7.02866 52.8401C7.38681 52.6706 7.90804 52.4372 8.56039 52.1654C9.86188 51.6121 11.6814 50.9054 13.7088 50.1635C15.7362 49.4217 17.5717 48.7693 18.902 48.2929L20.4785 47.7364L20.9102 47.5925C20.9587 47.5702 21.0106 47.5562 21.0637 47.551Z" fill="#455A64"/>
</svg>
