<svg width="150" height="115" viewBox="0 0 150 115" fill="none" xmlns="http://www.w3.org/2000/svg">
<path d="M74.6618 114.183C115.896 114.183 149.324 112.231 149.324 109.824C149.324 107.417 115.896 105.465 74.6618 105.465C33.4272 105.465 0 107.417 0 109.824C0 112.231 33.4272 114.183 74.6618 114.183Z" fill="#F5F5F5"/>
<path d="M127.49 111.834C123.947 112.029 120.403 112.206 116.858 112.365C115.361 112.43 113.861 112.491 112.357 112.55C98.0396 113.115 83.7162 113.354 69.3863 113.266C53.8191 113.171 38.2545 112.69 22.6924 111.822C24.1073 98.914 30.2372 86.982 39.9069 78.3143C49.5766 69.6467 62.1054 64.8533 75.0912 64.8533C88.077 64.8533 100.606 69.6467 110.275 78.3143C119.945 86.982 126.075 98.914 127.49 111.822V111.834Z" fill="#407BFF"/>
<path opacity="0.3" d="M127.49 111.834C123.947 112.029 120.403 112.206 116.858 112.365C115.361 112.43 113.861 112.491 112.357 112.55C98.0396 113.115 83.7162 113.354 69.3863 113.266C53.8191 113.171 38.2545 112.69 22.6924 111.822C24.1073 98.914 30.2372 86.982 39.9069 78.3143C49.5766 69.6467 62.1054 64.8533 75.0912 64.8533C88.077 64.8533 100.606 69.6467 110.275 78.3143C119.945 86.982 126.075 98.914 127.49 111.822V111.834Z" fill="black"/>
<path opacity="0.7" d="M48.2381 86.4962C47.6297 86.0341 44.7108 87.0315 44.7031 86.1651C44.7031 85.5874 46.667 83.974 47.0367 83.2539C47.5796 82.1872 47.2985 80.697 47.8068 79.6958C48.0841 79.1452 48.8388 77.8706 49.4588 77.3469C52.4238 74.8439 56.9446 72.1291 60.7106 71.9558C62.0661 71.8904 63.926 74.2162 64.2302 76.0299C64.4112 77.1081 64.2302 80.3081 63.279 81.4209C61.8427 83.1114 58.6967 83.1307 57.0255 84.4476C55.077 85.9879 54.1336 89.5845 51.8924 90.7898C51.2686 91.1248 50.0826 90.4663 49.6783 90.1236C48.9312 89.4844 48.9428 87.0238 48.2381 86.4962Z" fill="white"/>
<path opacity="0.7" d="M77.3921 92.5149C78.0275 92.4494 79.4291 92.1067 79.8142 91.5368C80.438 90.6165 80.6729 87.844 80.0222 87.0623C79.7488 86.7349 78.7245 86.8043 78.374 87.0892C77.9197 87.4743 78.0429 89.0569 77.6039 89.4536C77.1649 89.8502 75.8711 89.288 75.4783 89.7347C75.0855 90.1813 74.9777 91.6369 75.2819 92.0836C75.5861 92.5303 76.8415 92.5688 77.3921 92.5149Z" fill="white"/>
<path opacity="0.7" d="M127.49 111.834C123.947 112.029 120.404 112.206 116.858 112.365C116.724 111.722 116.585 111.029 116.219 110.798C115.314 110.213 112.207 110.182 111.983 110.979C111.928 111.251 111.931 111.532 111.993 111.803C112.055 112.074 112.174 112.329 112.341 112.55C98.0244 113.115 83.7009 113.354 69.3711 113.266L69.3942 113.228C71.3196 110.051 75.4745 106.805 78.9055 105.677C80.8309 105.037 83.6496 104.872 85.4132 105.896C86.0871 106.281 86.218 108.376 86.8226 108.977C87.6929 109.82 90.1073 110.794 91.2971 110.867C93.7924 111.021 97.1888 110.644 98.9986 109.023C99.53 108.553 99.8227 106.747 99.5878 105.989C99.2528 104.907 97.5122 102.931 96.4302 102.677C95.5137 102.454 93.9349 104.306 93.0261 104.052C91.7438 103.69 90.9698 100.093 89.7029 99.7889C89.4377 99.7844 89.1756 99.8461 88.9402 99.9685C88.7049 100.091 88.5038 100.27 88.3552 100.49C87.9701 101.472 90.1881 103.524 89.7992 104.502C89.4911 105.272 87.4156 106.481 86.7995 105.908C86.2951 105.442 87.8276 103.982 87.7044 103.316C87.5388 102.411 86.2719 100.621 85.394 100.482C84.7355 100.37 83.7536 101.737 83.1028 101.899C82.2633 102.111 80.3842 101.16 79.6718 101.68C79.1327 102.065 79.4562 103.863 78.9248 104.275C78.1777 104.849 75.9135 104.895 75.2204 104.298C74.3 103.505 73.707 100.355 74.5272 99.3769C75.1472 98.6491 77.6463 100.147 78.1469 99.3345C78.5012 98.7723 77.061 97.6518 77.1265 96.9933C77.1996 96.2231 78.2008 94.8523 78.7938 94.3863C79.5986 93.751 81.9514 94.0013 82.5444 93.1772C83.0797 92.4071 81.9668 90.0234 82.6176 89.4035C83.1529 88.8952 84.8549 89.3342 85.3593 89.8694C85.8638 90.4047 85.3786 92.8691 86.0216 93.1733C87.7776 93.9897 91.1624 92.4032 91.9787 90.8629C92.7489 89.4343 92.4331 86.1535 91.1778 84.9713C90.758 84.5862 89.3872 85.3795 89.0021 85.8762C88.617 86.373 88.902 87.8632 88.4784 88.2252C87.87 88.7489 86.0255 88.6641 85.3516 88.2252C84.6777 87.7862 83.9345 85.9994 83.9268 85.1446C83.9764 83.1304 84.5872 81.17 85.6905 79.484C86.4837 78.2941 89.0252 76.6807 90.1535 76.723C92.4177 76.8116 94.7281 79.1182 96.9539 79.8036C97.4044 79.9422 98.3632 79.8806 98.833 79.9114C100.146 79.9923 102.734 79.3531 104.089 80.2965C104.417 80.5199 104.705 81.548 105.044 81.7251C106.142 82.3104 108.325 81.652 108.598 80.7239C108.71 80.3389 107.828 79.1066 107.859 78.6754C107.961 78.0421 108.301 77.4718 108.81 77.0811C119.31 85.8035 126.008 98.265 127.49 111.834Z" fill="white"/>
<path opacity="0.7" d="M24.3406 108.091C24.6255 108.214 25.4534 108.261 25.7384 108.033C26.4123 107.51 25.8231 105.792 26.3776 105.199C28.7266 102.673 33.4668 102.85 35.6733 100.124C36.2894 99.3538 35.346 97.3822 36.1816 96.8046C38.8155 94.9871 43.0051 98.7916 45.3117 97.1242C46.671 96.1384 47.8878 92.7382 47.237 91.1979C47.1215 90.913 45.6428 91.6023 45.3425 91.3866C44.7418 90.9554 45.7275 88.2868 45.1961 88.102C43.625 87.5667 41.0027 88.9568 39.3546 89.8579C38.9002 90.1082 38.0992 91.1132 37.6564 91.2557C36.7168 91.5522 34.8723 90.9091 35.3691 90.2314C36.4665 88.7296 39.3161 88.333 40.8872 87.1239C42.2657 86.0572 44.6955 83.843 44.6647 82.7032C44.6262 81.1629 38.0453 82.8996 36.4011 83.7275C35.4307 84.2166 33.3205 86.2382 32.3347 86.7196C28.013 92.6833 24.9953 99.4901 23.478 106.697C23.7399 107.263 23.9324 107.918 24.3406 108.091Z" fill="white"/>
<path d="M53.2555 44.092C55.8226 44.0169 58.3542 44.7048 60.5303 46.0685C62.7064 47.4323 64.4293 49.4108 65.481 51.7537C66.5327 54.0966 66.866 56.6988 66.4388 59.2311C66.0116 61.7635 64.843 64.1123 63.0809 65.9805C61.3187 67.8487 59.0422 69.1525 56.5391 69.7268C54.036 70.3012 51.4188 70.1204 49.0185 69.2074C46.6181 68.2943 44.5425 66.6899 43.0539 64.5972C41.5654 62.5044 40.7309 60.0172 40.6559 57.4502C40.5564 54.0083 41.8277 50.6677 44.1904 48.1628C46.553 45.6579 49.8137 44.1937 53.2555 44.092ZM53.2016 42.2282C50.2661 42.3132 47.4218 43.2668 45.0282 44.9683C42.6347 46.6698 40.7995 49.0429 39.7546 51.7874C38.7097 54.532 38.5022 57.5247 39.1581 60.3872C39.8141 63.2497 41.3042 65.8534 43.4399 67.8691C45.5757 69.8847 48.2612 71.2218 51.1568 71.7112C54.0524 72.2006 57.0282 71.8204 59.7077 70.6186C62.3873 69.4169 64.6503 67.4475 66.2106 64.9596C67.7709 62.4717 68.5584 59.577 68.4736 56.6415C68.3578 52.7053 66.6836 48.9762 63.819 46.2741C60.9544 43.572 57.134 42.1181 53.1977 42.2321L53.2016 42.2282Z" fill="#263238"/>
<path d="M53.625 70.8276C49.9989 70.8451 46.5125 69.43 43.9244 66.8902C41.3363 64.3504 39.8558 60.8913 39.8051 57.2655C39.7543 53.6397 41.1374 50.1405 43.6534 47.5292C46.1694 44.9179 49.6147 43.4058 53.2399 43.3218C56.8864 43.2156 60.4257 44.5623 63.0793 47.0657C65.7328 49.569 67.2832 53.0239 67.3894 56.6704C67.4956 60.3169 66.149 63.8562 63.6456 66.5097C61.1423 69.1633 57.6874 70.7137 54.0409 70.8199L53.625 70.8276ZM53.2784 44.8621C50.0436 44.9658 46.9813 46.3455 44.7604 48.6998C42.5396 51.0541 41.3408 54.1917 41.4259 57.4271C41.4962 59.8419 42.2811 62.1816 43.6812 64.1504C45.0813 66.1191 47.0338 67.6285 49.2917 68.4876C51.5497 69.3467 54.0117 69.5169 56.3664 68.9767C58.7211 68.4365 60.8627 67.2102 62.5204 65.4528C64.1781 63.6955 65.2775 61.486 65.6795 59.1038C66.0814 56.7217 65.768 54.2738 64.7787 52.0698C63.7895 49.8657 62.1689 48.0046 60.1218 46.7216C58.0748 45.4387 55.6933 44.7916 53.2784 44.8621Z" fill="#407BFF"/>
<path d="M97.8393 42.7943C100.407 42.7184 102.939 43.4057 105.115 44.7691C107.292 46.1326 109.016 48.1109 110.068 50.454C111.12 52.7971 111.454 55.3995 111.027 57.9322C110.6 60.465 109.431 62.8141 107.669 64.6826C105.906 66.5511 103.629 67.8549 101.126 68.4292C98.6225 69.0035 96.005 68.8224 93.6045 67.9089C91.204 66.9954 89.1283 65.3904 87.64 63.2971C86.1518 61.2037 85.3178 58.716 85.2435 56.1486C85.1461 52.7076 86.4182 49.3686 88.7805 46.8648C91.1428 44.361 94.4023 42.897 97.8431 42.7943M97.7892 40.9305C94.8538 41.0163 92.0097 41.9706 89.6166 43.6728C87.2235 45.3749 85.3889 47.7485 84.3448 50.4933C83.3006 53.2381 83.0938 56.2308 83.7506 59.0932C84.4073 61.9555 85.898 64.5588 88.0343 66.5739C90.1706 68.589 92.8564 69.9253 95.7521 70.414C98.6479 70.9027 101.623 70.5217 104.303 69.3193C106.982 68.1168 109.244 66.1469 110.804 63.6586C112.364 61.1703 113.151 58.2754 113.065 55.34C113.008 53.3908 112.568 51.4719 111.77 49.6928C110.971 47.9138 109.83 46.3094 108.412 44.9714C106.993 43.6333 105.325 42.5878 103.502 41.8944C101.68 41.2011 99.7384 40.8736 97.7892 40.9305Z" fill="#263238"/>
<path d="M53.5673 54.7816C54.0204 54.7681 54.4672 54.8892 54.8514 55.1297C55.2356 55.3702 55.5398 55.7192 55.7256 56.1326C55.9113 56.546 55.9703 57.0053 55.8951 57.4522C55.8198 57.8991 55.6137 58.3137 55.3028 58.6435C54.9918 58.9733 54.5901 59.2034 54.1484 59.3048C53.7066 59.4063 53.2447 59.3744 52.8211 59.2133C52.3975 59.0521 52.0312 58.769 51.7685 58.3996C51.5058 58.0302 51.3586 57.5913 51.3455 57.1382C51.3329 56.5326 51.5587 55.9462 51.9743 55.5054C52.3899 55.0646 52.962 54.8047 53.5673 54.7816Z" fill="#263238"/>
<path d="M98.0819 50.9309C97.124 50.9587 96.196 51.27 95.4151 51.8254C94.6342 52.3808 94.0355 53.1553 93.6949 54.0509C93.3542 54.9466 93.2868 55.9231 93.5013 56.8571C93.7157 57.791 94.2023 58.6404 94.8995 59.2977C95.5968 59.9551 96.4733 60.3909 97.4182 60.55C98.3632 60.7091 99.3341 60.5844 100.208 60.1917C101.082 59.7989 101.82 59.1558 102.329 58.3436C102.837 57.5314 103.093 56.5866 103.065 55.6288C103.026 54.3452 102.48 53.1293 101.546 52.2484C100.611 51.3675 99.3655 50.8936 98.0819 50.9309ZM98.3129 58.8518C97.7042 58.8691 97.1039 58.7055 96.5881 58.3817C96.0723 58.058 95.664 57.5886 95.4148 57.0329C95.1657 56.4772 95.0868 55.8601 95.1882 55.2596C95.2896 54.6591 95.5667 54.1021 95.9845 53.6591C96.4023 53.216 96.9421 52.9067 97.5356 52.7702C98.1291 52.6338 98.7498 52.6763 99.3191 52.8925C99.8885 53.1086 100.381 53.4887 100.734 53.9846C101.088 54.4805 101.286 55.0701 101.305 55.6788C101.316 56.0834 101.248 56.4863 101.103 56.8644C100.959 57.2424 100.741 57.5883 100.463 57.8823C100.185 58.1762 99.8513 58.4125 99.4817 58.5775C99.1121 58.7426 98.7137 58.8332 98.3091 58.8441L98.3129 58.8518Z" fill="#263238"/>
<path opacity="0.5" d="M98.0819 50.9309C97.124 50.9587 96.196 51.27 95.4151 51.8254C94.6342 52.3808 94.0355 53.1553 93.6949 54.0509C93.3542 54.9466 93.2868 55.9231 93.5013 56.8571C93.7157 57.791 94.2023 58.6404 94.8995 59.2977C95.5968 59.9551 96.4733 60.3909 97.4182 60.55C98.3632 60.7091 99.3341 60.5844 100.208 60.1917C101.082 59.7989 101.82 59.1558 102.329 58.3436C102.837 57.5314 103.093 56.5866 103.065 55.6288C103.026 54.3452 102.48 53.1293 101.546 52.2484C100.611 51.3675 99.3655 50.8936 98.0819 50.9309ZM98.3129 58.8518C97.7042 58.8691 97.1039 58.7055 96.5881 58.3817C96.0723 58.058 95.664 57.5886 95.4148 57.0329C95.1657 56.4772 95.0868 55.8601 95.1882 55.2596C95.2896 54.6591 95.5667 54.1021 95.9845 53.6591C96.4023 53.216 96.9421 52.9067 97.5356 52.7702C98.1291 52.6338 98.7498 52.6763 99.3191 52.8925C99.8885 53.1086 100.381 53.4887 100.734 53.9846C101.088 54.4805 101.286 55.0701 101.305 55.6788C101.316 56.0834 101.248 56.4863 101.103 56.8644C100.959 57.2424 100.741 57.5883 100.463 57.8823C100.185 58.1762 99.8513 58.4125 99.4817 58.5775C99.1121 58.7426 98.7137 58.8332 98.3091 58.8441L98.3129 58.8518Z" fill="white"/>
<path d="M53.4903 52.2286C52.5322 52.2565 51.6038 52.568 50.8228 53.1238C50.0418 53.6795 49.4432 54.4545 49.1028 55.3506C48.7624 56.2467 48.6955 57.2236 48.9106 58.1577C49.1257 59.0918 49.6131 59.9412 50.3111 60.5982C51.0091 61.2552 51.8863 61.6903 52.8317 61.8485C53.7771 62.0067 54.7483 61.8809 55.6221 61.487C56.496 61.0931 57.2334 60.4487 57.7409 59.6355C58.2484 58.8223 58.5032 57.8769 58.4732 56.9188C58.4319 55.6369 57.8844 54.4236 56.9505 53.5445C56.0166 52.6654 54.7724 52.1923 53.4903 52.2286ZM53.7175 60.1534C53.1087 60.1706 52.5085 60.007 51.9927 59.6833C51.4769 59.3595 51.0686 58.8901 50.8194 58.3344C50.5703 57.7788 50.4914 57.1617 50.5928 56.5612C50.6942 55.9607 50.9713 55.4037 51.3891 54.9606C51.8069 54.5175 52.3467 54.2082 52.9402 54.0718C53.5337 53.9353 54.1544 53.9779 54.7237 54.194C55.2931 54.4101 55.7856 54.7902 56.139 55.2861C56.4925 55.7821 56.691 56.3717 56.7095 56.9804C56.7218 57.3853 56.6542 57.7887 56.5104 58.1674C56.3666 58.5461 56.1496 58.8928 55.8717 59.1875C55.5937 59.4822 55.2604 59.7192 54.8908 59.885C54.5211 60.0507 54.1224 60.1419 53.7175 60.1534Z" fill="#263238"/>
<path opacity="0.5" d="M53.4903 52.2286C52.5322 52.2565 51.6038 52.568 50.8228 53.1238C50.0418 53.6795 49.4432 54.4545 49.1028 55.3506C48.7624 56.2467 48.6955 57.2236 48.9106 58.1577C49.1257 59.0918 49.6131 59.9412 50.3111 60.5982C51.0091 61.2552 51.8863 61.6903 52.8317 61.8485C53.7771 62.0067 54.7483 61.8809 55.6221 61.487C56.496 61.0931 57.2334 60.4487 57.7409 59.6355C58.2484 58.8223 58.5032 57.8769 58.4732 56.9188C58.4319 55.6369 57.8844 54.4236 56.9505 53.5445C56.0166 52.6654 54.7724 52.1923 53.4903 52.2286ZM53.7175 60.1534C53.1087 60.1706 52.5085 60.007 51.9927 59.6833C51.4769 59.3595 51.0686 58.8901 50.8194 58.3344C50.5703 57.7788 50.4914 57.1617 50.5928 56.5612C50.6942 55.9607 50.9713 55.4037 51.3891 54.9606C51.8069 54.5175 52.3467 54.2082 52.9402 54.0718C53.5337 53.9353 54.1544 53.9779 54.7237 54.194C55.2931 54.4101 55.7856 54.7902 56.139 55.2861C56.4925 55.7821 56.691 56.3717 56.7095 56.9804C56.7218 57.3853 56.6542 57.7887 56.5104 58.1674C56.3666 58.5461 56.1496 58.8928 55.8717 59.1875C55.5937 59.4822 55.2604 59.7192 54.8908 59.885C54.5211 60.0507 54.1224 60.1419 53.7175 60.1534Z" fill="white"/>
<path d="M52.4738 55.8328C52.6124 55.7905 52.7562 55.7672 52.9012 55.7635H52.9243H52.9512L73.3062 53.5725C73.9755 53.5425 74.6329 53.7569 75.1558 54.1758C75.6788 54.5946 76.0315 55.1894 76.1484 55.8491C76.2653 56.5088 76.1383 57.1885 75.791 57.7615C75.4438 58.3345 74.9001 58.7617 74.2612 58.9635C74.0474 59.0302 73.8263 59.0703 73.6027 59.0829L53.0283 58.9327H53.0052C52.6215 58.9432 52.2469 58.815 51.9502 58.5716C51.6535 58.3281 51.4546 57.9858 51.39 57.6075C51.3253 57.2292 51.3994 56.8402 51.5985 56.5121C51.7976 56.184 52.1084 55.9387 52.4738 55.8213M52.2658 55.0858C51.7538 55.2688 51.3228 55.6265 51.0485 56.0959C50.7742 56.5654 50.6742 57.1165 50.7662 57.6524C50.8582 58.1883 51.1363 58.6745 51.5514 59.0256C51.9666 59.3767 52.4923 59.5702 53.036 59.5719L73.6374 59.7028C73.9265 59.6881 74.2125 59.6364 74.4884 59.5488C75.2794 59.2846 75.9486 58.744 76.3732 58.0262C76.7978 57.3085 76.9494 56.4617 76.8 55.6412C76.6507 54.8207 76.2106 54.0816 75.5603 53.5594C74.9101 53.0373 74.0934 52.7671 73.26 52.7985L52.8742 54.9934C52.6652 54.9976 52.4577 55.0313 52.2581 55.0935L52.2658 55.0858Z" fill="#407BFF"/>
<path d="M73.5795 58.2434H73.4794C73.3595 58.2295 73.2451 58.185 73.1474 58.1142C73.0496 58.0434 72.9716 57.9487 72.921 57.8391L65.6431 35.0197C65.6052 34.9362 65.5841 34.8461 65.581 34.7545C65.5779 34.6629 65.5928 34.5716 65.625 34.4858C65.6572 34.4 65.706 34.3213 65.7685 34.2544C65.8311 34.1874 65.9063 34.1334 65.9897 34.0955C66.0731 34.0576 66.1632 34.0364 66.2548 34.0333C66.3464 34.0302 66.4377 34.0452 66.5236 34.0774C66.6094 34.1095 66.688 34.1583 66.755 34.2209C66.8219 34.2835 66.8759 34.3586 66.9139 34.4421L73.7104 56.1948L92.0322 36.5561C92.1508 36.4258 92.3141 36.3449 92.4896 36.3296C92.6651 36.3142 92.84 36.3656 92.9793 36.4734C93.1187 36.5812 93.2124 36.7375 93.2416 36.9113C93.2709 37.085 93.2337 37.2634 93.1373 37.411L74.1186 57.9739C74.055 58.0567 73.9734 58.124 73.8801 58.1707C73.7867 58.2174 73.6839 58.2422 73.5795 58.2434Z" fill="#263238"/>
<path d="M53.6482 57.5387C53.5243 57.5418 53.4041 57.4958 53.314 57.4107C53.2238 57.3256 53.1709 57.2083 53.1669 57.0843C53.164 57.0155 53.1772 56.947 53.2054 56.8841L68.9433 44.8698C68.9867 44.7539 69.0744 44.66 69.1871 44.6087C69.2997 44.5574 69.4281 44.553 69.5441 44.5964C69.66 44.6398 69.7539 44.7275 69.8052 44.8402C69.8564 44.9528 69.8609 45.0812 69.8175 45.1971V45.2434L54.0795 57.2576C54.0432 57.3417 53.9829 57.4132 53.9062 57.4632C53.8295 57.5131 53.7398 57.5394 53.6482 57.5387Z" fill="#263238"/>
<path d="M66.1671 28.0691C66.1671 28.0691 65.4855 34.2033 65.9861 34.0993C66.4867 33.9954 78.8283 33.4293 78.8283 33.4293L73.9379 45.6669L76.8567 45.9981C76.8567 45.9981 85.7134 32.9056 85.0318 29.9251C84.3502 26.9447 66.1671 28.0691 66.1671 28.0691Z" fill="#407BFF"/>
<g opacity="0.3">
<path d="M66.1671 28.0691C66.1671 28.0691 65.4855 34.2033 65.9861 34.0993C66.4867 33.9954 78.8283 33.4293 78.8283 33.4293L73.9379 45.6669L76.8567 45.9981C76.8567 45.9981 85.7134 32.9056 85.0318 29.9251C84.3502 26.9447 66.1671 28.0691 66.1671 28.0691Z" fill="black"/>
</g>
<path opacity="0.2" d="M67.5801 31.6272L68.7353 33.9376C70.8455 33.8452 75.1853 33.6026 75.1853 33.6026C73.4678 32.2741 69.2012 31.2883 67.5801 31.6272Z" fill="black"/>
<path d="M72.771 49.9528L74.9544 49.7295L76.537 45.613L74.5077 45.459L72.771 49.9528Z" fill="#FF8B7B"/>
<path opacity="0.2" d="M76.537 45.6169L75.7707 47.6116L73.6875 47.5807L74.5039 45.459L76.537 45.6169Z" fill="black"/>
<path d="M77.3996 46.6104L73.3794 46.4602L73.4256 45.1625L77.6961 45.2549L77.3996 46.6104Z" fill="#407BFF"/>
<path d="M74.7657 49.1749L72.5862 49.198C72.5465 49.1988 72.5083 49.2129 72.4775 49.2381C72.4468 49.2632 72.4254 49.2979 72.4168 49.3367L72.0317 51.1119C72.0233 51.1491 72.0224 51.1876 72.0291 51.2251C72.0358 51.2627 72.0501 51.2985 72.0709 51.3305C72.0917 51.3624 72.1187 51.3899 72.1504 51.4112C72.182 51.4325 72.2176 51.4473 72.2551 51.4546H72.3128C73.083 51.4315 74.2382 51.3776 75.2201 51.3699C76.3753 51.3699 76.7604 51.4276 78.0928 51.4161C78.913 51.4161 79.1325 50.5766 78.7859 50.5034C77.2456 50.18 76.5833 50.1376 75.2278 49.3213C75.0891 49.2332 74.9298 49.1828 74.7657 49.1749Z" fill="#407BFF"/>
<path d="M76.1906 49.5485C76.015 49.5485 75.8398 49.5331 75.6669 49.5023C75.6576 49.4998 75.6492 49.495 75.6424 49.4882C75.6357 49.4815 75.6308 49.473 75.6284 49.4638C75.6265 49.4556 75.6274 49.447 75.6309 49.4393C75.6344 49.4317 75.6403 49.4254 75.6476 49.4214C75.717 49.3752 76.3485 48.9786 76.5718 49.0748C76.5957 49.0859 76.6162 49.1031 76.6311 49.1248C76.646 49.1465 76.6548 49.1718 76.6565 49.1981C76.6626 49.2421 76.6577 49.2869 76.6422 49.3286C76.6268 49.3702 76.6013 49.4074 76.568 49.4368C76.4573 49.5133 76.3251 49.5524 76.1906 49.5485ZM75.8055 49.433C76.0389 49.4979 76.2879 49.476 76.5064 49.3713C76.5287 49.3505 76.5456 49.3245 76.5556 49.2957C76.5657 49.2668 76.5686 49.236 76.5641 49.2058C76.5641 49.1949 76.5607 49.1843 76.5545 49.1754C76.5483 49.1664 76.5396 49.1596 76.5295 49.1557C76.4216 49.1056 76.0635 49.2789 75.8055 49.4252V49.433Z" fill="#407BFF"/>
<path d="M75.6745 49.4984H75.6436C75.6386 49.4847 75.6386 49.4697 75.6436 49.456C75.6436 49.4329 75.6706 48.89 75.8939 48.7052C75.92 48.6806 75.951 48.6621 75.9849 48.6508C76.0188 48.6395 76.0548 48.6357 76.0903 48.6397C76.1249 48.6372 76.1594 48.6466 76.188 48.6661C76.2167 48.6857 76.2379 48.7144 76.2482 48.7475C76.2983 48.967 75.9171 49.3829 75.713 49.5177L75.6745 49.4984ZM76.0595 48.7283C76.0197 48.7321 75.982 48.7482 75.9517 48.7745C75.8187 48.9457 75.7432 49.1546 75.7361 49.3713C75.9325 49.2173 76.1866 48.8938 76.1481 48.7745C76.1481 48.7745 76.1481 48.736 76.0749 48.7321L76.0595 48.7283Z" fill="#407BFF"/>
<path d="M98.2089 69.526C94.6064 69.5078 91.1548 68.0768 88.5961 65.5408C86.0374 63.0048 84.5757 59.5662 84.5253 55.964C84.4748 52.3618 85.8397 48.8836 88.3264 46.2769C90.8131 43.6703 94.2232 42.1433 97.8238 42.0241C101.47 41.9174 105.01 43.2636 107.664 45.7666C110.318 48.2696 111.869 51.7243 111.975 55.3708C112.082 59.0172 110.736 62.5568 108.233 65.2107C105.73 67.8646 102.275 69.4155 98.6286 69.5222L98.2089 69.526ZM97.8623 43.5606C94.6237 43.6652 91.5584 45.0484 89.3372 47.4075C87.1159 49.7667 85.9195 52.9096 86.0098 56.1486C86.0794 58.5646 86.864 60.9056 88.2642 62.8756C89.6645 64.8455 91.6176 66.356 93.8764 67.2158C96.1353 68.0756 98.5984 68.2462 100.954 67.706C103.31 67.1657 105.453 65.9389 107.111 64.1808C108.77 62.4226 109.869 60.2121 110.271 57.8288C110.673 55.4455 110.359 52.9966 109.369 50.7917C108.379 48.5869 106.758 46.7252 104.709 45.4421C102.661 44.1591 100.278 43.5123 97.8623 43.5837V43.5606Z" fill="#407BFF"/>
<path d="M91.0736 34.6346L69.2592 44.323C69.0744 44.3455 68.8882 44.2936 68.7416 44.1788C68.595 44.064 68.5 43.8956 68.4775 43.7108C68.4551 43.5259 68.507 43.3397 68.6218 43.1931C68.7366 43.0465 68.905 42.9515 69.0898 42.9291L90.7309 33.5025L91.0736 34.6346Z" fill="#263238"/>
<path d="M73.1598 67.3966L69.0472 67.516C68.9237 67.5195 68.8037 67.4739 68.7138 67.389C68.6239 67.3042 68.5714 67.1871 68.5678 67.0635C68.5642 66.9399 68.6099 66.82 68.6948 66.7301C68.7796 66.6402 68.8967 66.5877 69.0203 66.5841L73.1329 66.4647C73.2564 66.4611 73.3764 66.5068 73.4663 66.5917C73.5562 66.6765 73.6087 66.7936 73.6123 66.9172C73.6159 67.0407 73.5702 67.1607 73.4853 67.2506C73.4005 67.3405 73.2834 67.393 73.1598 67.3966Z" fill="#263238"/>
<path d="M71.3347 67.1193C71.2624 67.1231 71.1902 67.1096 71.1241 67.0801C71.058 67.0506 70.9998 67.0058 70.9544 66.9494C70.9089 66.8931 70.8774 66.8267 70.8626 66.7559C70.8477 66.685 70.8498 66.6116 70.8688 66.5417L74.5539 51.5701C74.5917 51.4598 74.6694 51.3678 74.7718 51.312C74.8741 51.2562 74.9937 51.2409 75.1068 51.2689C75.2199 51.2969 75.3184 51.3664 75.3829 51.4635C75.4473 51.5606 75.4731 51.6783 75.455 51.7934L71.7698 66.7574C71.7477 66.8574 71.6929 66.9473 71.6142 67.0128C71.5354 67.0783 71.4371 67.1158 71.3347 67.1193Z" fill="#263238"/>
<path d="M76.6449 54.6083L72.5284 54.7277C72.4049 54.7313 72.2849 54.6856 72.195 54.6007C72.1051 54.5159 72.0526 54.3988 72.049 54.2752C72.0454 54.1517 72.0911 54.0317 72.176 53.9418C72.2608 53.8519 72.3779 53.7994 72.5015 53.7958L76.6179 53.6764C76.7415 53.6729 76.8614 53.7185 76.9513 53.8034C77.0412 53.8882 77.0938 54.0053 77.0973 54.1289C77.1009 54.2525 77.0552 54.3724 76.9704 54.4623C76.8855 54.5522 76.7684 54.6047 76.6449 54.6083Z" fill="#263238"/>
<path d="M77.0336 52.1901L72.921 52.3094C72.8598 52.3112 72.7989 52.3009 72.7417 52.2791C72.6845 52.2573 72.6321 52.2245 72.5876 52.1825C72.5431 52.1405 72.5073 52.0901 72.4822 52.0342C72.4572 51.9784 72.4434 51.9182 72.4416 51.857C72.4398 51.7958 72.4501 51.7348 72.4719 51.6776C72.4937 51.6204 72.5265 51.5681 72.5685 51.5235C72.6106 51.479 72.6609 51.4432 72.7168 51.4182C72.7726 51.3931 72.8329 51.3793 72.8941 51.3775L77.0066 51.2582C77.1302 51.2546 77.2502 51.3003 77.3401 51.3851C77.43 51.47 77.4825 51.5871 77.4861 51.7106C77.4896 51.8342 77.444 51.9541 77.3591 52.0441C77.2743 52.134 77.1572 52.1865 77.0336 52.1901Z" fill="#263238"/>
<path d="M98.4129 56.4336C98.3571 56.4541 98.2989 56.467 98.2396 56.4721C98.0841 56.4763 97.9315 56.4287 97.806 56.3367C97.6805 56.2446 97.5892 56.1134 97.5465 55.9638L94.5314 45.9519L91.1273 34.623L91.0734 34.6461L90.7307 33.514L91.5509 33.1559C91.6555 33.1438 91.7614 33.1555 91.8608 33.1902C91.9601 33.2249 92.0504 33.2816 92.1247 33.3561C92.2116 33.4391 92.2742 33.5443 92.3057 33.6604L98.8904 55.5826C98.9391 55.7587 98.9162 55.9469 98.8268 56.1063C98.7374 56.2657 98.5886 56.3833 98.4129 56.4336Z" fill="#263238"/>
<path d="M91.5355 33.1444L90.7153 33.5025L89.8912 30.807C89.8268 30.64 89.8287 30.4548 89.8965 30.2892C89.9643 30.1236 90.0928 29.9902 90.2558 29.9164C90.4188 29.8425 90.6038 29.8338 90.773 29.892C90.9422 29.9502 91.0827 30.0709 91.1658 30.2294L92.1092 33.3369C92.0342 33.2637 91.9437 33.2084 91.8443 33.1751C91.745 33.1418 91.6394 33.1313 91.5355 33.1444Z" fill="#263238"/>
<path d="M73.2906 56.2102L54.0793 56.6454C54.0195 56.6464 53.9605 56.6592 53.9057 56.6833C53.8509 56.7074 53.8014 56.7421 53.7602 56.7855C53.719 56.8288 53.6868 56.88 53.6656 56.9359C53.6443 56.9919 53.6344 57.0515 53.6365 57.1113C53.6394 57.2272 53.6864 57.3376 53.768 57.4199C53.8496 57.5022 53.9596 57.5502 54.0755 57.5541L73.5794 58.2434L73.2906 56.2102Z" fill="#263238"/>
<path d="M90.6499 33.6334L92.1709 38.4892C92.1801 38.5194 92.1953 38.5474 92.2154 38.5717C92.2355 38.596 92.2603 38.6161 92.2882 38.6308C92.3161 38.6454 92.3467 38.6544 92.3781 38.6572C92.4095 38.66 92.4412 38.6566 92.4713 38.6471L93.6458 38.262C93.6755 38.2528 93.703 38.2378 93.7269 38.2179C93.7507 38.1979 93.7704 38.1735 93.7847 38.1459C93.799 38.1183 93.8077 38.0882 93.8103 38.0572C93.8129 38.0262 93.8093 37.9951 93.7998 37.9655L92.3057 33.0712C92.2966 33.0402 92.2813 33.0113 92.2605 32.9865C92.2398 32.9617 92.2142 32.9414 92.1853 32.927C92.1564 32.9125 92.1248 32.9042 92.0925 32.9025C92.0602 32.9008 92.0279 32.9058 91.9977 32.9172L90.8001 33.3369C90.7414 33.3571 90.693 33.3994 90.6649 33.4547C90.6369 33.5101 90.6315 33.5742 90.6499 33.6334Z" fill="#407BFF"/>
<path d="M90.1609 31.6657L89.2483 28.6621L91.4394 27.8766L91.7975 29.232L91.4817 31.2421L90.1609 31.6657Z" fill="#407BFF"/>
<path d="M87.1264 29.9637C86.8711 29.979 86.6202 29.8923 86.4288 29.7225C86.2374 29.5528 86.1213 29.3141 86.106 29.0587C86.0907 28.8034 86.1774 28.5525 86.3471 28.3611C86.5168 28.1697 86.7556 28.0536 87.0109 28.0383L93.0758 27.3105C93.3311 27.2799 93.5882 27.3519 93.7904 27.5108C93.9926 27.6697 94.1234 27.9024 94.154 28.1577C94.1846 28.413 94.1126 28.67 93.9537 28.8722C93.7949 29.0744 93.5622 29.2052 93.3068 29.2359L87.2458 29.9637C87.2061 29.9675 87.1661 29.9675 87.1264 29.9637Z" fill="#407BFF"/>
<path d="M59.9595 33.0442C59.888 33.0461 59.819 33.0708 59.7625 33.1148C59.7061 33.1587 59.6652 33.2196 59.6458 33.2884C59.6264 33.3573 59.6296 33.4305 59.6549 33.4975C59.6802 33.5644 59.7262 33.6215 59.7862 33.6604C60.9415 34.3958 62.8668 35.6281 63.5869 36.1518C63.6841 36.2216 63.7982 36.2642 63.9174 36.275C64.0366 36.2859 64.1565 36.2646 64.2646 36.2134L64.5804 36.0594C66.6433 35.0617 68.8939 34.5119 71.1844 34.4459L72.1625 34.4189C72.2962 34.4183 72.4266 34.3771 72.5365 34.3009C72.6464 34.2246 72.7307 34.1169 72.7782 33.9919C72.8257 33.8669 72.8342 33.7304 72.8027 33.6004C72.7712 33.4704 72.701 33.3531 72.6015 33.2637L72.2164 32.8787C72.1529 32.8179 72.0781 32.7703 71.9961 32.7385C71.9142 32.7068 71.8268 32.6916 71.7389 32.6938L59.9595 33.0442Z" fill="#263238"/>
<path d="M73.1483 54.2695C73.6065 54.2528 74.0594 54.3728 74.4492 54.6142C74.839 54.8556 75.1481 55.2076 75.3372 55.6253C75.5264 56.043 75.587 56.5075 75.5113 56.9597C75.4356 57.4119 75.2271 57.8314 74.9123 58.1648C74.5974 58.4981 74.1905 58.7303 73.7434 58.8316C73.2962 58.933 72.829 58.899 72.4012 58.7341C71.9734 58.5691 71.6043 58.2805 71.341 57.9051C71.0777 57.5298 70.9321 57.0845 70.9226 56.6261C70.9101 56.0198 71.1364 55.4329 71.5528 54.992C71.9692 54.5511 72.5423 54.2916 73.1483 54.2695ZM73.1137 53.1143C72.4278 53.1329 71.7629 53.3547 71.2032 53.7516C70.6435 54.1485 70.2142 54.7026 69.9697 55.3437C69.7252 55.9848 69.6765 56.684 69.8298 57.3528C69.983 58.0216 70.3314 58.6298 70.8306 59.1005C71.3299 59.5711 71.9577 59.883 72.6343 59.9965C73.311 60.11 74.0062 60.0202 74.6317 59.7383C75.2573 59.4564 75.7851 58.9951 76.1482 58.413C76.5114 57.8309 76.6936 57.154 76.6717 56.4682C76.6435 55.5524 76.2538 54.6849 75.5877 54.0557C74.9217 53.4264 74.0335 53.0865 73.1175 53.1104L73.1137 53.1143Z" fill="#407BFF"/>
<path d="M68.6121 65.0708L70.5991 64.8628L70.4836 60.4999L68.4966 60.7079L68.6121 65.0708Z" fill="#FF8B7B"/>
<path d="M70.9112 64.4277L68.4813 64.5201C68.4433 64.5217 68.4069 64.5358 68.3777 64.5601C68.3484 64.5845 68.328 64.6178 68.3196 64.6549L67.9923 66.3454C67.9869 66.382 67.9887 66.4194 67.9978 66.4554C68.0069 66.4913 68.023 66.5251 68.0452 66.5549C68.0673 66.5846 68.0952 66.6096 68.1271 66.6285C68.159 66.6474 68.1943 66.6598 68.231 66.665H68.2965C69.0667 66.6226 69.6481 66.5571 70.6069 66.5186C71.2115 66.5186 73.0368 66.484 73.8685 66.4493C74.7003 66.4147 74.7773 65.6368 74.4346 65.5752C72.8943 65.3211 71.7121 64.9283 71.2038 64.5317C71.12 64.4664 71.0174 64.4299 70.9112 64.4277Z" fill="#407BFF"/>
<path opacity="0.2" d="M68.4966 60.7117L70.4836 60.5038L70.5413 62.7488L68.5543 62.9567L68.4966 60.7117Z" fill="black"/>
<path d="M66.3249 27.7071C66.3249 27.7071 71.6235 38.9513 71.4118 44.4616C71.1846 50.4996 71.3694 61.7899 71.3694 61.7899L67.923 62.148C67.923 62.148 66.2248 51.4007 66.3827 45.5167C66.5714 38.8203 56.8406 31.4038 59.5746 26.498C62.8708 27.0448 66.3249 27.7071 66.3249 27.7071Z" fill="#407BFF"/>
<g opacity="0.3">
<path d="M66.3249 27.7071C66.3249 27.7071 71.6235 38.9513 71.4118 44.4616C71.1846 50.4996 71.3694 61.7899 71.3694 61.7899L67.923 62.148C67.923 62.148 66.2248 51.4007 66.3827 45.5167C66.5714 38.8203 56.8406 31.4038 59.5746 26.498C62.8708 27.0448 66.3249 27.7071 66.3249 27.7071Z" fill="black"/>
</g>
<path d="M71.6735 62.1442L67.4069 62.6679L67.249 61.4665L71.8198 60.8273L71.6735 62.1442Z" fill="#407BFF"/>
<path d="M71.5849 64.7319C71.4093 64.732 71.234 64.7165 71.0612 64.6857C71.0519 64.6833 71.0435 64.6784 71.0367 64.6716C71.0299 64.6649 71.0251 64.6564 71.0227 64.6472C71.0208 64.639 71.0217 64.6304 71.0252 64.6228C71.0287 64.6151 71.0345 64.6088 71.0419 64.6048C71.1112 64.5586 71.7428 64.162 71.9661 64.2583C71.99 64.2693 72.0105 64.2865 72.0254 64.3082C72.0403 64.3299 72.0491 64.3552 72.0508 64.3815C72.0569 64.4255 72.052 64.4703 72.0365 64.512C72.0211 64.5536 71.9955 64.5908 71.9623 64.6202C71.8516 64.6967 71.7194 64.7358 71.5849 64.7319ZM71.1998 64.6164C71.4332 64.6813 71.6822 64.6594 71.9006 64.5548C71.923 64.5339 71.9399 64.5079 71.9499 64.4791C71.96 64.4502 71.9629 64.4194 71.9584 64.3892C71.9583 64.3783 71.955 64.3677 71.9488 64.3588C71.9426 64.3499 71.9339 64.343 71.9237 64.3391C71.8159 64.2891 71.4578 64.4623 71.1998 64.6087V64.6164Z" fill="#407BFF"/>
<path d="M71.0689 64.6857H71.0381C71.0263 64.6746 71.0194 64.6594 71.0188 64.6433C71.0188 64.6202 71.0458 64.0773 71.2691 63.8924C71.2951 63.8679 71.3262 63.8494 71.3601 63.8381C71.394 63.8268 71.43 63.823 71.4655 63.827C71.5001 63.8245 71.5345 63.8338 71.5632 63.8534C71.5918 63.873 71.613 63.9017 71.6234 63.9348C71.6734 64.1543 71.2922 64.5702 71.0881 64.6857H71.0689ZM71.4539 63.9155C71.4141 63.9193 71.3764 63.9355 71.3461 63.9617C71.2131 64.133 71.1376 64.3419 71.1305 64.5586C71.3269 64.4046 71.581 64.0811 71.5425 63.9617C71.5425 63.9617 71.5425 63.9232 71.4693 63.9194L71.4539 63.9155Z" fill="#407BFF"/>
<path d="M67.7304 11.1528L72.9443 11.923C75.867 12.3581 78.8898 10.8602 81.4159 9.30834L82.6288 10.5752C82.6288 10.5752 77.2879 14.5107 74.6463 14.5222C73.1483 14.5222 70.7955 14.1372 69.0512 13.779C68.7732 13.7238 68.5114 13.6058 68.2859 13.4342C68.0603 13.2625 67.8769 13.0417 67.7495 12.7885C67.6221 12.5352 67.5542 12.2563 67.5509 11.9729C67.5476 11.6894 67.609 11.409 67.7304 11.1528Z" fill="#263238"/>
<path d="M84.5082 7.0056C84.3619 7.85661 84.2194 8.70762 84.0731 9.56249C83.5879 9.87054 83.1681 10.2864 82.6829 10.5983C82.1676 10.2961 81.7247 9.8847 81.3853 9.39305C81.4738 9.00798 81.6355 8.62291 81.7241 8.21858C81.8743 7.5601 82.6791 7.12883 83.1219 6.62053C83.5224 6.71295 84.1116 6.91318 84.5082 7.0056Z" fill="#FF8B7B"/>
<path d="M68.8394 15.1807L72.744 15.0767L73.2831 11.4455C73.2831 11.4455 71.1113 11.0181 69.0743 10.606C68.9895 11.7844 68.9241 13.9985 68.8394 15.1807Z" fill="#407BFF"/>
<path opacity="0.1" d="M68.8394 15.1807L72.744 15.0767L73.2831 11.4455C73.2831 11.4455 71.1113 11.0181 69.0743 10.606C68.9895 11.7844 68.9241 13.9985 68.8394 15.1807Z" fill="black"/>
<path opacity="0.2" d="M72.7441 15.0767L69.1052 14.4029L69.0859 15.1846L72.7441 15.0767Z" fill="black"/>
<path d="M59.767 12.5198C60.5371 19.351 59.6322 23.9835 59.0662 28.1923C60.4563 28.5196 63.1903 28.639 65.7125 28.5427C67.1059 28.4439 68.4897 28.2393 69.8521 27.9305C69.5941 23.8872 70.2179 15.8007 70.5028 12.4313C70.5407 11.9994 70.4142 11.5692 70.1487 11.2265C69.8831 10.8838 69.498 10.654 69.0704 10.5829H69.0396C68.7508 10.5367 68.4388 10.4944 68.1154 10.4559C67.9305 10.4366 67.7303 10.4174 67.5647 10.4058C66.0525 10.3429 64.5378 10.3686 63.0286 10.4828C62.7436 10.4828 62.4548 10.5252 62.1737 10.556C61.8926 10.5868 61.6539 10.6176 61.4036 10.6522L61.0685 10.7023C60.8636 10.7337 60.6668 10.8054 60.4895 10.913C60.3123 11.0207 60.1581 11.1624 60.0357 11.3298C59.9133 11.4972 59.8253 11.6872 59.7765 11.8888C59.7277 12.0904 59.7193 12.2996 59.7516 12.5044L59.767 12.5198Z" fill="#407BFF"/>
<path d="M61.4998 15.019C61.5421 15.9547 60.8066 17.8916 60.1212 19.1123C60.1674 17.9571 60.1713 16.7018 60.0942 15.4349L61.4998 15.019Z" fill="#407BFF"/>
<path opacity="0.2" d="M61.4998 15.019C61.5421 15.9547 60.8066 17.8916 60.1212 19.1123C60.1674 17.9571 60.1713 16.7018 60.0942 15.4349L61.4998 15.019Z" fill="black"/>
<path d="M63.4022 5.36904C63.7103 6.82462 64.0414 9.48932 63.0364 10.4828C63.8412 11.253 64.8963 12.1502 66.6291 12.181C68.3619 12.2118 68.0346 11.0258 67.5725 10.4058C65.936 10.0438 65.9591 8.83855 66.2248 7.71029L63.4022 5.36904Z" fill="#FF8B7B"/>
<path opacity="0.2" d="M64.5496 6.31248L66.2169 7.69104C66.1506 7.95483 66.1094 8.22429 66.0937 8.49584C65.7347 8.43921 65.3951 8.29554 65.1044 8.07739C64.8138 7.85923 64.581 7.57323 64.4264 7.24435C64.2685 6.81692 64.3917 6.37024 64.5496 6.31248Z" fill="black"/>
<path d="M62.1082 3.7787C62.7205 5.6617 62.9823 6.79382 64.1992 7.52545C66.036 8.62291 68.1693 7.14038 68.1308 5.10335C68.0961 3.2781 67.1026 0.509426 65.0502 0.228323C64.5928 0.16332 64.1265 0.216936 63.6958 0.384024C63.2652 0.551113 62.8847 0.826068 62.5909 1.18251C62.2971 1.53895 62.0998 1.96491 62.018 2.41954C61.9361 2.87416 61.9725 3.34218 62.1236 3.7787H62.1082Z" fill="#FF8B7B"/>
<path d="M63.379 4.25234C63.5145 4.62855 63.6806 4.99303 63.8757 5.34209C63.4783 5.21983 63.0626 5.16771 62.6473 5.18807C62.5028 5.20344 62.3575 5.21116 62.2122 5.21117C62.0695 5.20785 61.9328 5.15316 61.8271 5.05714C61.7644 4.99034 61.721 4.90784 61.7013 4.81837C61.6816 4.7289 61.6865 4.63577 61.7154 4.54884C61.7735 4.37259 61.8904 4.22167 62.0466 4.12141C62.214 4.00603 62.4132 3.94549 62.6165 3.94813C62.809 3.95583 63.3096 4.06365 63.379 4.25234Z" fill="#263238"/>
<path d="M62.9825 2.34623C62.9825 2.34623 63.2213 3.35512 63.5447 4.27159C63.306 4.24849 62.2933 4.79914 62.3395 5.10335C62.4473 5.79263 63.1096 6.33944 63.7257 6.66675C63.7257 6.88239 63.6949 7.50235 63.6949 7.50235C63.3098 7.78346 62.8362 7.88743 62.4434 8.16468C62.2444 8.32366 62.0189 8.44621 61.7773 8.52665C61.6569 8.56532 61.5285 8.5718 61.4049 8.54545C61.2813 8.5191 61.1667 8.46085 61.0726 8.37647C61.0286 8.33185 60.9944 8.27864 60.972 8.22016C60.9496 8.16168 60.9395 8.09921 60.9424 8.03665C60.9453 7.9741 60.9611 7.91282 60.9888 7.85666C61.0165 7.8005 61.0555 7.75067 61.1034 7.7103C60.8924 7.74931 60.6745 7.71526 60.4855 7.61375C60.2964 7.51225 60.1477 7.34935 60.0637 7.15194C59.9899 6.94401 59.9877 6.71739 60.0575 6.50809C60.1273 6.29879 60.265 6.1188 60.4488 5.99672C60.3219 6.06914 60.1726 6.09152 60.0301 6.05945C59.8876 6.02739 59.7622 5.9432 59.6786 5.82344C59.6064 5.69771 59.5658 5.55628 59.5604 5.41136C59.5551 5.26645 59.585 5.12241 59.6478 4.99168C59.7769 4.73188 59.9639 4.50526 60.1946 4.32935C60.1188 4.37972 60.0263 4.39826 59.9369 4.38097C59.8476 4.36368 59.7686 4.31194 59.7171 4.23694C59.6241 4.08347 59.5925 3.90057 59.6286 3.72479C59.7006 3.2011 59.9776 2.72743 60.3987 2.40784C62.0045 1.18331 65.0196 -1.28886 66.3866 0.825191L66.0747 0.740474C65.2814 0.913757 65.7204 1.1602 65.2737 1.22182C64.4088 1.33996 63.6052 1.73434 62.9825 2.34623Z" fill="#263238"/>
<path d="M61.8193 5.92741C61.9978 6.09706 62.2081 6.22967 62.4381 6.31758C62.6681 6.40549 62.9133 6.44694 63.1594 6.43955C63.8217 6.41645 63.9488 5.77723 63.5984 5.26123C63.248 4.74523 62.5587 4.24463 61.9811 4.52189C61.8544 4.58371 61.7453 4.67644 61.6639 4.79151C61.5825 4.90659 61.5314 5.04031 61.5153 5.18035C61.4992 5.32039 61.5186 5.46223 61.5717 5.59279C61.6248 5.72336 61.71 5.83843 61.8193 5.92741Z" fill="#FF8B7B"/>
<path d="M65.1465 3.54764C65.1966 3.69782 65.3044 3.80565 65.4045 3.77869C65.5046 3.75174 65.5547 3.60541 65.5162 3.45138C65.4777 3.29735 65.3622 3.18953 65.2582 3.21648C65.1542 3.24344 65.108 3.39362 65.1465 3.54764Z" fill="#263238"/>
<path d="M66.8908 3.08941C66.937 3.24344 67.0448 3.35126 67.1488 3.32431C67.2528 3.29735 67.3028 3.15103 67.2605 2.99315C67.2181 2.83527 67.1064 2.73514 67.0025 2.7621C66.8985 2.78905 66.8677 2.93538 66.8908 3.08941Z" fill="#263238"/>
<path d="M66.3711 3.31661C66.6744 3.75046 67.0374 4.13936 67.4493 4.47183C67.363 4.57498 67.2552 4.65805 67.1335 4.71525C67.0118 4.77244 66.8791 4.80239 66.7446 4.80299L66.3711 3.31661Z" fill="#FF5652"/>
<path d="M66.1978 5.36904C66.0193 5.39322 65.8378 5.38076 65.6644 5.33243C65.4909 5.2841 65.3291 5.20091 65.1889 5.08794C65.1846 5.08364 65.1812 5.07855 65.1788 5.07293C65.1765 5.06731 65.1753 5.06129 65.1753 5.05521C65.1753 5.04913 65.1765 5.0431 65.1788 5.03749C65.1812 5.03187 65.1846 5.02677 65.1889 5.02247C65.1929 5.01764 65.1979 5.01375 65.2035 5.01107C65.2092 5.00839 65.2154 5.007 65.2216 5.007C65.2279 5.007 65.2341 5.00839 65.2397 5.01107C65.2454 5.01375 65.2504 5.01764 65.2543 5.02247C65.4129 5.14465 65.5979 5.22811 65.7944 5.26622C65.991 5.30432 66.1937 5.29602 66.3865 5.24197C66.3986 5.24033 66.4109 5.24287 66.4214 5.24917C66.4319 5.25547 66.44 5.26515 66.4442 5.27662C66.4467 5.28884 66.4445 5.30153 66.4381 5.31221C66.4317 5.32289 66.4215 5.33079 66.4096 5.33438C66.34 5.35169 66.2692 5.36329 66.1978 5.36904Z" fill="#263238"/>
<path d="M64.4573 3.11636H64.4111C64.3885 3.10621 64.3707 3.08773 64.3613 3.06478C64.352 3.04183 64.3519 3.01617 64.361 2.99314C64.4144 2.85235 64.5012 2.72661 64.6139 2.62668C64.7266 2.52676 64.8618 2.45563 65.0079 2.41938C65.0323 2.41597 65.0571 2.42205 65.0772 2.43638C65.0973 2.45071 65.1111 2.47219 65.1157 2.49639C65.1204 2.52085 65.1153 2.54615 65.1017 2.56697C65.088 2.58779 65.0668 2.60252 65.0426 2.60807C64.9272 2.63655 64.8205 2.69284 64.7319 2.77205C64.6433 2.85126 64.5755 2.95097 64.5343 3.06245C64.5274 3.0775 64.5167 3.09045 64.5031 3.09993C64.4896 3.10941 64.4738 3.11509 64.4573 3.11636Z" fill="#263238"/>
<path d="M67.5108 2.28846C67.4952 2.29001 67.4796 2.28805 67.4649 2.28272C67.4502 2.27738 67.437 2.26882 67.4261 2.25766C67.3524 2.16504 67.2577 2.09126 67.1499 2.04239C67.0422 1.99351 66.9243 1.97095 66.8061 1.97655C66.7928 1.98042 66.7789 1.98138 66.7653 1.9794C66.7516 1.97741 66.7386 1.97252 66.727 1.96505C66.7154 1.95758 66.7055 1.9477 66.6981 1.93609C66.6906 1.92448 66.6858 1.9114 66.6838 1.89775C66.6819 1.88409 66.6829 1.87018 66.6868 1.85695C66.6907 1.84372 66.6974 1.83148 66.7064 1.82106C66.7154 1.81064 66.7266 1.80228 66.7392 1.79656C66.7517 1.79083 66.7653 1.78787 66.7791 1.78787C66.9258 1.7806 67.072 1.80822 67.2059 1.86846C67.3398 1.92871 67.4575 2.01986 67.5493 2.13443C67.5579 2.14302 67.5647 2.15322 67.5694 2.16445C67.5741 2.17569 67.5765 2.18773 67.5765 2.19989C67.5765 2.21205 67.5741 2.2241 67.5694 2.23533C67.5647 2.24657 67.5579 2.25677 67.5493 2.26536C67.5394 2.27712 67.5258 2.28525 67.5108 2.28846Z" fill="#263238"/>
<path d="M61.6808 11.6303L56.0202 13.2785C52.8549 14.1988 49.2814 12.9973 46.2663 11.6534L45.1111 13.2399C45.1111 13.2399 51.5919 16.7903 54.5223 16.4014C56.1858 16.1819 58.7234 15.3848 60.6064 14.7379C60.9063 14.6351 61.1787 14.4653 61.403 14.2414C61.6273 14.0175 61.7976 13.7453 61.9008 13.4456C62.004 13.1459 62.0375 12.8267 61.9987 12.5121C61.9599 12.1975 61.8499 11.896 61.6769 11.6303H61.6808Z" fill="#263238"/>
<path d="M42.4773 9.55479L43.3437 12.3235C43.929 12.593 44.4527 12.9896 45.038 13.2592C45.5663 12.845 45.9963 12.319 46.2972 11.7189C46.1355 11.2915 45.9121 10.8948 45.7427 10.4674C45.477 9.76272 44.522 9.40461 43.9521 8.92712C43.5247 9.0927 42.9047 9.40076 42.4773 9.55479Z" fill="#FF8B7B"/>
<path d="M60.6951 10.7755C58.3153 11.6496 58.3269 11.819 55.8354 12.285L57.884 16.9482C57.884 16.9482 59.7593 16.798 61.0108 15.6852C61.935 14.8649 62.632 13.7598 62.3316 12.1309C62.1892 11.3646 61.4267 10.5059 60.6951 10.7755Z" fill="#407BFF"/>
<path opacity="0.1" d="M60.6951 10.7755C58.3153 11.6496 58.3269 11.819 55.8354 12.285L57.884 16.9482C57.884 16.9482 59.7593 16.798 61.0108 15.6852C61.935 14.8649 62.632 13.7598 62.3316 12.1309C62.1892 11.3646 61.4267 10.5059 60.6951 10.7755Z" fill="white"/>
</svg>
